<svg width="1440" height="1023" viewBox="0 0 1440 1023" fill="none" xmlns="http://www.w3.org/2000/svg">
<g id="StartPage">
<rect width="1440" height="1023" fill="#171717"/>
<g id="FeaturedIN">
<g id="Group 30">
<g id="ESPRIT">
<path id="ESPRIT_2" fill-rule="evenodd" clip-rule="evenodd" d="M387.384 983.179C387.384 980.18 385.897 978.538 380.512 977.667L380.512 979.795C384.23 980.436 385.179 981.41 385.154 983.256C385.128 985.026 383.846 986.82 379.769 986.82C376.333 986.82 374.359 985 373.948 982.461H371.461C371.769 985.59 374.384 989 379.692 989C385.102 989 387.384 985.974 387.384 983.179ZM372.051 974.436C372.051 978.256 375.512 979.385 378.384 979.641L378.384 977.487C376.025 977.179 374.282 976.333 374.282 974.461C374.282 972.615 376.102 971.179 379.102 971.179C381.794 971.179 383.589 972.513 384.025 974.59H386.589C386.359 972.359 384.205 969 379.102 969C375.256 969 372.051 971.103 372.051 974.436ZM355 969.385V971.615H369.051V969.385H355ZM369.051 977.898H355V980.103H369.051V977.898ZM369.051 986.385H355V988.615H369.051V986.385ZM392.333 969.385V988.615H390.102V969.385H392.333ZM394.461 971.615V969.385H398.23C401.846 969.385 404.153 971.641 404.153 974.744C404.153 977.846 401.717 980.103 398.23 980.103H394.461V977.872H398.23C400.615 977.872 401.922 976.59 401.922 974.744C401.922 972.897 400.615 971.615 398.23 971.615L394.461 971.615ZM409.076 969.385H406.845V988.615H409.076V969.385ZM421.461 974.744C421.461 971.641 419.153 969.385 415.537 969.385H411.204V971.615H415.461C417.845 971.615 419.102 973.026 419.102 974.744C419.102 976.487 417.845 977.872 415.461 977.872H411.204V980.103H415.537C419.025 980.103 421.461 977.846 421.461 974.744ZM414.871 982.026L419.23 988.615H422.025L417.538 982.026H414.871ZM424.665 969.385H426.896V988.615H424.665V969.385ZM429.28 969.385V971.615H443.844V969.385H429.28ZM437.691 988.615V973.692H435.46V988.615H437.691Z" fill="white"/>
</g>
<g id="Group 28">
<path id="Vector" d="M198.136 969L156.336 986.8C152.869 988.267 149.958 989 147.603 989C144.936 989 143.003 988.067 141.803 986.2C141.047 985 140.825 983.478 141.136 981.633C141.447 979.789 142.269 977.822 143.603 975.733C144.714 974.044 146.536 971.822 149.069 969.067C148.181 970.489 147.558 971.956 147.203 973.467C146.536 976.311 147.136 978.4 149.003 979.733C149.892 980.356 151.114 980.667 152.669 980.667C153.914 980.667 155.314 980.467 156.869 980.067L198.136 969Z" fill="white"/>
</g>
<g id="Group 27">
<path id="Vector_2" d="M476.278 987.556L476.296 987.52L476.314 987.556C476.528 987.913 476.688 988.198 476.955 988.233C477.205 988.18 477.258 987.913 477.33 987.645C477.33 987.61 477.348 987.592 477.348 987.556C477.205 987.503 477.098 987.396 477.045 987.342C477.027 987.396 477.027 987.449 477.027 987.485C477.009 987.627 476.991 987.699 476.938 987.699C476.92 987.699 476.92 987.699 476.902 987.681C476.742 987.574 476.545 987.146 476.528 987.128V987.11V987.093C476.635 986.897 476.742 986.683 476.848 986.487C476.955 986.255 477.062 986.059 477.134 985.952L476.724 985.738C476.688 985.916 476.599 986.166 476.528 986.38C476.492 986.487 476.456 986.576 476.438 986.647L476.421 986.736L476.403 986.647C476.314 986.326 476.242 985.542 476.225 985.506V985.488H476.884L477.241 985.506V985.168L476.866 985.185H476.207V984.651H475.815C475.815 984.704 475.832 984.847 475.85 984.936L475.868 985.168H474.638L474.103 985.185V985.524L474.602 985.506H475.832V985.524C475.886 986.005 476.029 986.861 476.135 987.164V987.182V987.2C475.939 987.556 475.458 987.948 475.315 988.055C475.387 988.091 475.512 988.162 475.654 988.305C475.743 988.198 476.1 987.823 476.278 987.556Z" fill="white"/>
<path id="Vector_3" d="M475.761 987.52V987.2C475.333 987.36 474.567 987.485 474.05 987.52C474.068 987.592 474.139 987.806 474.193 987.948L475.761 987.52Z" fill="white"/>
<path id="Vector_4" d="M475.636 985.863L475.28 985.881H474.727L474.371 985.863L474.389 986.184V986.718L474.371 987.075L474.745 987.057H475.28L475.619 987.075L475.601 986.665V986.184L475.636 985.863ZM475.298 986.772H474.727V986.201H475.298V986.772Z" fill="white"/>
<path id="Vector_5" d="M476.456 984.811L476.706 985.114L477.009 984.936L476.742 984.651L476.456 984.811Z" fill="white"/>
<path id="Vector_6" d="M477.829 988.911L477.811 988.394V984.686L477.829 984.187L477.312 984.223H474.086L473.551 984.205L473.569 984.775V988.447L473.551 989H473.961V988.715H477.437V988.911H477.829ZM473.961 988.358V988.341V984.562H477.437V988.358H473.961Z" fill="white"/>
<path id="Vector_7" d="M483.319 987.004C483.426 987.752 484.068 988.412 484.389 988.537C484.478 988.287 484.638 988.127 484.727 988.055C483.693 987.627 483.622 986.772 483.622 986.772V986.754L483.64 986.736C483.889 986.54 484.175 986.38 484.299 986.326L483.889 985.988C483.497 986.344 482.891 986.772 482.873 986.772L482.838 986.808L482.82 986.772C482.642 986.415 482.285 986.148 482.267 986.148L482.214 986.112L482.267 986.077C482.374 986.005 482.659 985.72 482.659 985.72L482.677 985.702H483.569L483.889 985.72V985.328L483.586 985.346H481.483L481.073 985.328V985.72L481.43 985.702H482.107L482.036 985.774C481.715 986.112 481.091 986.398 480.289 986.611C480.431 986.718 480.503 986.897 480.538 986.968C481.037 986.808 481.893 986.344 481.911 986.344H481.929H481.946C482.053 986.38 482.143 986.504 482.16 986.504L482.178 986.54L482.125 986.522C481.554 987.128 480.61 987.396 480.307 987.485C480.431 987.592 480.503 987.77 480.538 987.841C481.251 987.61 482.303 986.825 482.321 986.808L482.356 986.79L482.374 986.825C482.392 986.843 482.481 986.95 482.481 987.021V987.039L482.463 987.057C482.089 987.485 481.394 988.073 480.2 988.34C480.342 988.483 480.431 988.661 480.467 988.75C481.84 988.251 482.553 987.467 482.553 987.467L482.606 987.396L482.624 987.485C482.659 987.824 482.624 988.073 482.481 988.234C482.303 988.43 482.036 988.43 481.893 988.43C482 988.626 482.071 988.84 482.089 988.929C482.232 988.893 482.749 988.733 482.873 988.501C483.052 988.18 483.105 987.663 482.998 987.2V987.164L483.319 986.95V987.004Z" fill="white"/>
<path id="Vector_8" d="M480.324 984.544L480.342 984.865V985.399L480.324 985.702H480.77V984.936H484.175V985.649H484.602L484.585 985.292V984.865L484.602 984.544L484.228 984.562H482.766V984.526C482.731 984.33 482.642 984.098 482.624 984.009L482.143 984.098C482.214 984.294 482.25 984.508 482.25 984.526V984.579H480.699L480.324 984.544Z" fill="white"/>
<path id="Vector_9" d="M488.72 988.198C488.72 988.376 488.72 988.537 488.827 988.661C488.987 988.822 489.362 988.875 490.021 988.84C491.216 988.786 491.251 988.697 491.447 988.144C491.465 988.109 491.465 988.073 491.483 988.037C491.287 987.948 491.144 987.841 491.073 987.788C490.966 988.447 490.645 988.447 490.057 988.465H489.986C489.95 988.465 489.897 988.465 489.861 988.465C489.79 988.465 489.736 988.465 489.683 988.465C489.344 988.465 489.13 988.376 489.13 987.913V986.237L489.683 986.005V987.449L489.665 987.931H490.093L490.075 987.449V985.881L490.716 985.667V986.683C490.681 986.986 490.592 987.075 490.289 987.075C490.396 987.235 490.431 987.431 490.449 987.521C490.574 987.503 491.055 987.431 491.091 987.057C491.109 986.861 491.126 985.292 491.126 985.061C491.055 985.078 490.877 985.168 490.752 985.221L490.075 985.488V984.615L490.093 984.08H489.665L489.683 984.615V985.613L489.13 985.791V985.221L489.148 984.793H488.684L488.702 985.221V985.988H488.667C488.488 986.041 488.274 986.095 488.185 986.112L488.292 986.54C488.364 986.504 488.506 986.451 488.631 986.398L488.684 986.362V988.109C488.72 988.144 488.72 988.18 488.72 988.198Z" fill="white"/>
<path id="Vector_10" d="M488.274 987.93V987.485L487.74 987.734V985.988H487.9C488.007 985.988 488.167 986.005 488.239 986.005V985.56C488.167 985.56 488.007 985.578 487.918 985.578H487.74V984.704C487.74 984.615 487.758 984.419 487.758 984.33H487.33C487.33 984.401 487.348 984.579 487.348 984.704V985.595H487.187C487.027 985.595 486.938 985.595 486.813 985.578V986.005C486.884 986.005 487.062 985.988 487.187 985.988H487.365V987.841L487.348 987.859C487.205 987.93 486.991 987.984 486.831 988.002C486.866 988.091 486.955 988.305 486.991 988.572C487.098 988.447 487.508 988.216 488.274 987.93Z" fill="white"/>
<path id="Vector_11" d="M494.995 988.02C494.995 987.841 494.977 987.627 494.977 987.538L494.335 987.841V986.469H494.585L494.834 986.487V986.041L494.567 986.059H494.335V984.847H494.692L494.905 984.865V984.437L494.674 984.455H493.711L493.408 984.437V984.865L493.729 984.847H493.979V986.059H493.693L493.426 986.023V986.469L493.676 986.451H493.979V987.93H493.961C493.64 988.073 493.39 988.127 493.319 988.127L493.444 988.661C494.228 988.305 494.888 988.055 494.995 988.02Z" fill="white"/>
<path id="Vector_12" d="M497.918 988.875V988.447L497.508 988.465H496.581V987.824H497.258L497.633 987.841V987.431L497.241 987.449H496.581V986.843H497.223L497.651 986.861L497.633 986.522V984.704L497.651 984.258L497.205 984.276H495.601L495.191 984.258L495.209 984.758V986.487L495.191 986.879L495.619 986.861H496.225V987.467H495.619L495.262 987.449V987.841L495.636 987.824H496.225V988.465H495.191L494.799 988.447V988.875L495.191 988.857H497.454L497.918 988.875ZM496.599 984.633H497.258V985.381H496.599V984.633ZM496.599 985.72H497.258V986.487H496.599V985.72ZM496.225 986.487H495.601V985.72H496.225V986.487ZM496.225 985.364H495.601V984.615H496.225V985.364Z" fill="white"/>
<path id="Vector_13" d="M476.884 974.775H476.332C475.601 973.742 474.87 972.708 474.139 971.549V974.775H473.515V970.266H474.068C474.799 971.299 475.529 972.316 476.242 973.474H476.26V970.266H476.884V974.775Z" fill="white"/>
<path id="Vector_14" d="M478.346 972.993C478.524 972.405 478.702 971.852 478.863 971.157H478.881C479.059 971.852 479.219 972.405 479.38 972.993H478.346ZM478.649 970.266L477.098 974.758H477.758L478.15 973.528H479.504L479.861 974.758H480.717L479.291 970.266H478.649Z" fill="white"/>
<path id="Vector_15" d="M481.447 974.775V970.872H480.271V970.266H483.408V970.872H482.214V974.775H481.447Z" fill="white"/>
<path id="Vector_16" d="M484.424 970.266H483.658V974.758H484.424V970.266Z" fill="white"/>
<path id="Vector_17" d="M486.795 974.205C485.993 974.205 485.708 973.314 485.708 972.458C485.708 971.62 486.028 970.836 486.795 970.836C487.561 970.836 487.882 971.62 487.882 972.458C487.882 973.314 487.597 974.205 486.795 974.205ZM486.795 974.847C487.971 974.847 488.702 973.795 488.702 972.458C488.702 971.193 487.9 970.194 486.795 970.194C485.69 970.194 484.888 971.193 484.888 972.458C484.888 973.795 485.618 974.847 486.795 974.847Z" fill="white"/>
<path id="Vector_18" d="M492.535 974.775H491.982C491.251 973.742 490.52 972.708 489.79 971.549V974.775H489.166V970.266H489.718C490.449 971.299 491.18 972.316 491.893 973.474H491.911V970.266H492.535V974.775Z" fill="white"/>
<path id="Vector_19" d="M494.014 972.993C494.192 972.405 494.371 971.852 494.531 971.157H494.549C494.727 971.852 494.888 972.405 495.066 972.993H494.014ZM494.299 970.266L492.749 974.758H493.426L493.818 973.528H495.173L495.529 974.758H496.385L494.959 970.266H494.299Z" fill="white"/>
<path id="Vector_20" d="M496.599 970.266H497.365V974.169H498.898V974.775H496.599V970.266Z" fill="white"/>
<path id="Vector_21" d="M476.403 978.537V980.39C475.993 980.551 475.565 980.658 475.119 980.658C473.8 980.658 472.963 979.624 472.963 978.305C472.963 977.075 473.8 976.005 475.155 976.005C475.565 976.005 475.993 976.166 476.242 976.344L475.993 976.879C475.779 976.754 475.458 976.647 475.173 976.647C474.353 976.647 473.783 977.289 473.783 978.323C473.783 979.392 474.424 980.016 475.084 980.016C475.298 980.016 475.458 979.998 475.619 979.909V978.519H476.403V978.537Z" fill="white"/>
<path id="Vector_22" d="M479.166 976.7H477.882V977.93H479.148V978.537H477.882V979.998H479.397V980.586H477.116V976.094H479.166V976.7Z" fill="white"/>
<path id="Vector_23" d="M481.537 980.034C480.734 980.034 480.449 979.143 480.449 978.287C480.449 977.467 480.77 976.665 481.537 976.665C482.303 976.665 482.624 977.449 482.624 978.287C482.624 979.143 482.339 980.034 481.537 980.034ZM481.537 980.676C482.713 980.676 483.444 979.624 483.444 978.287C483.444 977.021 482.642 976.023 481.537 976.023C480.431 976.023 479.629 977.021 479.629 978.287C479.629 979.624 480.36 980.676 481.537 980.676Z" fill="white"/>
<path id="Vector_24" d="M487.151 978.537V980.39C486.741 980.551 486.314 980.658 485.868 980.658C484.549 980.658 483.711 979.624 483.711 978.305C483.711 977.075 484.549 976.005 485.904 976.005C486.314 976.005 486.741 976.166 486.991 976.344L486.741 976.879C486.528 976.754 486.207 976.647 485.922 976.647C485.102 976.647 484.531 977.289 484.531 978.323C484.531 979.392 485.173 980.016 485.832 980.016C486.046 980.016 486.207 979.998 486.367 979.909V978.519H487.151V978.537Z" fill="white"/>
<path id="Vector_25" d="M488.631 976.701H488.97C489.433 976.701 489.683 976.968 489.683 977.431C489.683 978.037 489.308 978.305 488.952 978.323C488.881 978.323 488.702 978.34 488.631 978.34V976.701ZM490.592 980.586L489.683 978.715C490.182 978.447 490.467 977.913 490.467 977.378C490.467 976.504 489.932 976.077 489.077 976.077H487.882V980.569H488.649V978.875H488.987H489.005L489.736 980.569H490.592V980.586Z" fill="white"/>
<path id="Vector_26" d="M491.857 978.822C492.036 978.233 492.214 977.681 492.374 976.986H492.392C492.57 977.681 492.731 978.233 492.891 978.822H491.857ZM492.16 976.094L490.61 980.586H491.287L491.679 979.356H493.034L493.39 980.586H494.246L492.82 976.094H492.16Z" fill="white"/>
<path id="Vector_27" d="M495.244 980.586H494.478V976.094H495.672C496.528 976.094 497.062 976.522 497.062 977.396C497.062 978.162 496.51 978.893 495.583 978.893H495.226V978.34C495.262 978.34 495.476 978.323 495.565 978.323C495.939 978.305 496.296 978.037 496.296 977.431C496.296 976.968 496.046 976.7 495.583 976.7H495.226V980.586H495.244Z" fill="white"/>
<path id="Vector_28" d="M500.645 980.586H499.879V978.43H498.274V980.586H497.508V976.094H498.274V977.823H499.879V976.112H500.645V980.586Z" fill="white"/>
<path id="Vector_29" d="M502.16 976.094H501.394V980.586H502.16V976.094Z" fill="white"/>
<path id="Vector_30" d="M505.618 976.914C505.44 976.807 505.119 976.665 504.834 976.665C504.05 976.665 503.479 977.307 503.479 978.34C503.479 979.41 504.103 980.034 504.852 980.034C505.155 980.034 505.422 979.945 505.618 979.802L505.832 980.355C505.601 980.515 505.191 980.658 504.816 980.658C503.497 980.658 502.659 979.624 502.659 978.305C502.659 977.075 503.479 976.005 504.834 976.005C505.226 976.005 505.601 976.166 505.868 976.344L505.618 976.914Z" fill="white"/>
</g>
<g id="Group 29">
<path id="Vector_31" d="M227.972 979.287C228.915 979.36 229.735 979.76 230.435 980.484C231.132 981.211 231.482 982.208 231.482 983.478C231.482 985.036 230.966 986.279 229.931 987.207C228.896 988.13 227.41 988.596 225.467 988.596H216V970.362H225.444C227.114 970.362 228.449 970.816 229.458 971.725C230.466 972.633 230.966 973.837 230.966 975.342C230.966 976.485 230.651 977.393 230.016 978.063C229.381 978.733 228.7 979.106 227.976 979.179V979.287H227.972ZM220.491 977.897H224.409C225.078 977.897 225.613 977.713 226.013 977.339C226.414 976.966 226.614 976.474 226.614 975.858C226.614 975.296 226.418 974.842 226.029 974.495C225.64 974.149 225.155 973.98 224.574 973.98H220.491V977.897ZM224.682 984.975C225.39 984.975 225.936 984.794 226.329 984.432C226.718 984.07 226.914 983.57 226.914 982.935C226.914 982.335 226.714 981.861 226.314 981.507C225.913 981.153 225.398 980.976 224.763 980.976H220.491V984.975H224.682ZM247.072 988.592H242.719V987.287C241.63 988.43 240.233 989 238.528 989C236.931 989 235.65 988.477 234.676 987.434C233.706 986.391 233.221 985.017 233.221 983.312V974.934H237.547V982.388C237.547 983.185 237.766 983.835 238.201 984.336C238.636 984.836 239.198 985.082 239.887 985.082C240.776 985.082 241.468 984.771 241.969 984.143C242.469 983.516 242.715 982.562 242.715 981.272V974.934H247.068V988.592H247.072ZM260.479 988.592H248.954V987.772L254.372 978.39H249.088V974.934H260.414V975.754L254.995 985.136H260.479V988.592ZM273.887 988.592H262.361V987.772L267.78 978.39H262.492V974.934H273.818V975.754L268.399 985.136H273.883V988.592H273.887ZM280.36 978.144H288.234V982.061H280.36V988.592H275.869V970.362H288.957V974.307H280.36V978.144ZM320.133 982.877H310.119C310.377 984.571 311.643 985.517 313.56 985.517C315.068 985.517 316.558 984.925 317.674 984.066L319.344 986.96C317.816 988.273 315.834 989 313.56 989C308.98 989 305.848 986.21 305.848 981.761C305.848 979.656 306.548 977.924 307.941 976.562C309.338 975.2 311.051 974.522 313.083 974.522C315.061 974.522 316.719 975.184 318.062 976.508C319.405 977.832 320.094 979.583 320.129 981.761V982.877H320.133ZM311.316 978.632C310.774 979.013 310.4 979.541 310.2 980.21H315.834C315.634 979.502 315.292 978.967 314.799 978.606C314.31 978.244 313.737 978.063 313.086 978.063C312.451 978.063 311.863 978.251 311.316 978.632ZM304.212 982.877H294.199C294.457 984.571 295.723 985.517 297.639 985.517C299.148 985.517 300.637 984.925 301.753 984.066L303.423 986.96C301.895 988.273 299.914 989 297.639 989C293.06 989 289.927 986.21 289.927 981.761C289.927 979.656 290.627 977.924 292.021 976.562C293.418 975.2 295.13 974.522 297.162 974.522C299.14 974.522 300.799 975.184 302.142 976.508C303.485 977.832 304.174 979.583 304.208 981.761V982.877H304.212ZM295.396 978.632C294.853 979.013 294.48 979.541 294.28 980.21H299.914C299.713 979.502 299.371 978.967 298.878 978.606C298.39 978.244 297.816 978.063 297.166 978.063C296.527 978.063 295.938 978.251 295.396 978.632ZM336.977 988.592H332.625V987.503C331.516 988.5 330.104 989 328.38 989C326.529 989 324.955 988.323 323.658 986.972C322.361 985.621 321.711 983.882 321.711 981.761C321.711 979.656 322.361 977.924 323.658 976.562C324.955 975.2 326.529 974.522 328.38 974.522C330.104 974.522 331.52 975.023 332.625 976.019V969H336.977V988.592ZM331.632 984.309C332.294 983.647 332.625 982.8 332.625 981.765C332.625 980.749 332.294 979.906 331.632 979.233C330.97 978.563 330.185 978.225 329.277 978.225C328.314 978.225 327.526 978.556 326.91 979.217C326.294 979.879 325.986 980.726 325.986 981.761C325.986 982.812 326.294 983.666 326.91 984.32C327.526 984.975 328.314 985.302 329.277 985.302C330.185 985.302 330.97 984.971 331.632 984.309Z" fill="white"/>
</g>
<g id="Layer_1">
<g id="g4356">
<path id="path4352" d="M537.601 982.099C531.323 982.099 526.212 982.159 526.212 982.219C526.212 982.3 531.303 982.34 537.601 982.34C543.898 982.34 548.989 982.28 548.989 982.219C548.989 982.159 543.878 982.099 537.601 982.099Z" fill="white"/>
<path id="path4354" d="M545.166 979.221H544.542L542.007 970.73L539.371 979.221H538.748L536.353 969.885H536.776L539.069 978.819H539.09L541.846 969.926H542.208L544.864 978.819L547.299 969.885H547.721L545.166 979.221ZM546.735 969C546.474 969 546.253 969.181 546.152 969.463L544.703 975.298L542.872 969H541.424C541.182 969 540.961 969.161 540.84 969.463L539.15 975.298L537.741 969.483V969.463C537.641 969.181 537.42 969 537.158 969H534.985L537.963 980.167L538.003 980.328H540.096L541.947 974.211L543.798 980.328H545.89L548.929 969.02H546.735V969ZM533.516 974.976C533.516 976.223 533.536 977.531 532.53 978.537C531.927 979.141 531.021 979.483 529.955 979.483H527.198V969.865H529.955C531.021 969.865 531.906 970.187 532.53 970.811C533.536 971.817 533.536 973.024 533.516 974.292V974.976ZM533.335 970.107C532.611 969.382 531.564 969 530.317 969H526.172V980.308H530.317C531.564 980.308 532.611 979.926 533.335 979.201C534.522 978.014 534.502 976.485 534.502 975.016V974.211C534.502 972.702 534.502 971.294 533.335 970.107ZM531.544 977.41C531.202 977.833 530.76 978.014 530.116 978.014H528.707V971.314H530.116C530.76 971.314 531.202 971.495 531.544 971.918C531.886 972.34 531.967 973.004 531.967 974.614C531.947 976.223 531.906 976.968 531.544 977.41ZM532.249 971.093C531.705 970.549 530.921 970.268 529.975 970.268H527.601V979.04H529.955C530.921 979.04 531.705 978.759 532.228 978.215C533.114 977.33 533.114 976.183 533.094 974.956V974.272C533.114 973.044 533.134 971.978 532.249 971.093Z" fill="white"/>
</g>
<path id="path4358" d="M527.763 987.712L528.205 984.775L528.93 984.674L528.809 985.499H529.533L529.453 986.103H528.728L528.487 987.672C528.467 987.773 528.507 987.813 528.628 987.813C528.769 987.813 528.95 987.753 529.111 987.692L529.272 988.175C529.03 988.296 528.728 988.396 528.386 988.396C527.924 988.396 527.702 988.135 527.763 987.712ZM549.251 987.712L549.694 984.775L550.418 984.674L550.298 985.499H551.022L550.941 986.103H550.217L549.976 987.672C549.956 987.773 549.996 987.813 550.117 987.813C550.257 987.813 550.438 987.753 550.599 987.692L550.76 988.175C550.519 988.296 550.217 988.396 549.875 988.396C549.412 988.396 549.191 988.135 549.251 987.712ZM531.686 986.324C531.686 986.304 531.706 986.123 531.525 986.123C531.344 986.123 530.942 986.304 530.68 986.445L530.398 988.336H529.694L530.117 985.539L530.72 985.439V985.781C531.082 985.58 531.525 985.419 531.867 985.419C532.27 985.419 532.41 985.68 532.431 985.982C532.431 986.103 532.431 986.163 532.41 986.264L532.109 988.316H531.404L531.686 986.324ZM533.537 987.511C533.517 987.672 533.497 987.813 533.758 987.813C534.06 987.813 534.483 987.672 534.845 987.491L535.006 988.034C534.664 988.235 534.141 988.417 533.658 988.417C532.893 988.417 532.732 987.994 532.813 987.41L532.934 986.545C533.034 985.881 533.336 985.479 534.201 985.479C534.744 985.479 535.127 985.761 535.147 986.223C535.167 986.726 534.845 987.028 534.06 987.27C533.718 987.37 533.658 987.39 533.517 987.431L533.537 987.511ZM534.503 986.223C534.503 986.103 534.382 986.002 534.201 986.002C533.879 986.002 533.738 986.203 533.698 986.465L533.658 986.747C533.758 986.726 533.779 986.706 534.08 986.626C534.382 986.525 534.503 986.404 534.503 986.223ZM546.736 986.103C546.414 986.284 546.193 986.425 545.911 986.606L545.65 988.356H544.946L545.368 985.559L545.972 985.459L545.952 985.881C546.153 985.74 546.434 985.559 546.676 985.459L546.736 986.103ZM546.756 988.215L546.877 987.692C547.098 987.773 547.4 987.833 547.682 987.833C548.004 987.833 548.064 987.773 548.084 987.592C548.104 987.41 548.084 987.35 547.642 987.149C547.038 986.847 546.958 986.646 547.018 986.203C547.098 985.64 547.32 985.459 548.084 985.459C548.346 985.459 548.708 985.519 548.95 985.6L548.849 986.143C548.628 986.083 548.306 986.042 548.104 986.042C547.823 986.042 547.742 986.062 547.702 986.264C547.682 986.465 547.722 986.505 548.044 986.666C548.708 987.028 548.829 987.129 548.768 987.571C548.668 988.215 548.467 988.417 547.662 988.417C547.4 988.396 547.018 988.336 546.756 988.215ZM537.783 988.215L537.903 987.692C538.125 987.773 538.426 987.833 538.708 987.833C539.03 987.833 539.09 987.773 539.111 987.592C539.131 987.41 539.111 987.35 538.668 987.149C538.064 986.847 537.984 986.646 538.044 986.203C538.125 985.64 538.346 985.459 539.111 985.459C539.372 985.459 539.734 985.519 539.976 985.6L539.875 986.143C539.654 986.083 539.332 986.042 539.131 986.042C538.849 986.042 538.769 986.062 538.728 986.264C538.708 986.465 538.748 986.505 539.07 986.666C539.734 987.028 539.855 987.129 539.795 987.571C539.694 988.215 539.493 988.417 538.688 988.417C538.426 988.396 538.024 988.336 537.783 988.215ZM535.408 988.215L535.529 987.692C535.75 987.773 536.052 987.833 536.334 987.833C536.656 987.833 536.716 987.773 536.736 987.592C536.756 987.41 536.736 987.35 536.294 987.149C535.69 986.847 535.61 986.646 535.67 986.203C535.75 985.64 535.972 985.459 536.736 985.459C536.998 985.459 537.36 985.519 537.602 985.6L537.501 986.143C537.28 986.083 536.958 986.042 536.756 986.042C536.475 986.042 536.394 986.062 536.354 986.264C536.334 986.465 536.374 986.505 536.696 986.666C537.36 987.028 537.481 987.129 537.42 987.571C537.32 988.215 537.119 988.417 536.314 988.417C536.052 988.396 535.65 988.336 535.408 988.215ZM525.227 985.519L525.328 984.795H526.877L526.978 984.171H524.724L524 989H524.704L525.127 986.123H526.636L526.294 988.356H526.998L527.421 985.519H525.227ZM542.511 985.519L542.612 984.795H544.161L544.261 984.171H542.008L541.284 989H541.988L542.41 986.123H543.899L543.557 988.356H544.261L544.684 985.519H542.511Z" fill="white"/>
</g>
<g id="layer1">
<g id="layer1-3">
<path id="path3348" d="M591.114 988.596H597.361L600.71 969.428H594.463L593.228 976.292H587.812L589.047 969.428H582.8L579.451 988.596H585.698L586.957 981.423H592.373L591.114 988.596Z" fill="white"/>
<path id="path3352" d="M604.249 969.404L602.349 980.069C602.183 980.9 602.112 981.708 602.112 982.468C602.112 988.121 607.052 988.976 610.021 988.976C616.245 988.976 618.929 986.91 619.903 981.328L621.993 969.38H615.746L613.964 979.404C613.394 982.539 612.991 984.178 610.663 984.178C609.143 984.178 608.406 983.371 608.406 981.708C608.406 981.067 608.501 980.283 608.691 979.309L610.497 969.38H604.249V969.404Z" fill="white"/>
<path id="path3356" d="M655.01 988.596H661.257L662.135 983.656H665.081C670.52 983.656 673.537 980.71 673.537 975.342C673.537 971.565 670.924 969.404 666.34 969.404H658.359L655.01 988.596ZM664.748 978.929H662.943L663.774 974.416H665.461C666.838 974.416 667.575 975.104 667.575 976.363C667.575 977.955 666.506 978.929 664.748 978.929Z" fill="white"/>
<path id="path3360" d="M685.675 969C678.881 969 674.819 973.394 674.819 980.781C674.819 985.912 678.05 989 683.466 989C690.259 989 694.321 984.606 694.321 977.219C694.344 972.064 691.114 969 685.675 969ZM683.846 984.036C682.23 984.036 681.28 982.872 681.28 980.924C681.28 980.188 681.352 979.546 681.494 978.81C681.969 976.292 682.777 973.988 685.318 973.988C686.933 973.988 687.884 975.152 687.884 977.1C687.884 977.836 687.812 978.477 687.67 979.214C687.195 981.708 686.387 984.036 683.846 984.036Z" fill="white"/>
<path id="path3364" d="M716.055 988.596H722.302L724.772 974.558H729.475L730.378 969.428H714.392L713.489 974.558H718.478L716.055 988.596Z" fill="white"/>
<path id="path3366" d="M705.698 976.506C703.727 975.888 702.919 975.627 702.919 974.701C702.919 974.083 703.323 973.347 704.511 973.347C705.389 973.347 706.126 973.846 706.411 974.582L711.922 973.086C711.28 970.378 708.952 969 704.938 969C697.385 969 696.791 974.059 696.791 975.603C696.791 978.739 698.454 980.663 702.064 981.66C703.014 981.922 704.107 982.207 704.107 983.252C704.107 984.083 703.489 984.606 702.42 984.606C701.447 984.606 700.401 984.036 700.045 983.038L694.606 984.511C695.199 987.361 697.884 988.976 702.088 988.976C705.294 988.976 710.663 988.121 710.663 982.325C710.686 979.428 709.047 977.527 705.698 976.506Z" fill="white"/>
<path id="path3370" d="M575.96 988.596L579.333 969.428H569V988.596H575.96Z" fill="white"/>
<path id="path3374" d="M733.062 969.428L729.713 988.596H740.045V969.428H733.062Z" fill="white"/>
<path id="polygon3376" d="M629.451 982.943H634.701L635.556 978.121H630.306L630.9 974.558H638.24L639.143 969.404H625.556L622.207 988.596H628.454L629.451 982.943Z" fill="white"/>
<path id="polygon3378" d="M645.817 982.943H651.09L651.945 978.121H646.696L647.29 974.558H654.629L655.532 969.404H641.945L638.596 988.596H644.843L645.817 982.943Z" fill="white"/>
</g>
</g>
</g>
<path id="AS FEATURED IN" d="M178.312 930L179.152 927.489H182.98L183.825 930H185.794L182.205 919.818H179.928L176.343 930H178.312ZM179.649 926.008L181.026 921.906H181.106L182.483 926.008H179.649ZM193.504 922.617H195.279C195.244 920.897 193.778 919.679 191.61 919.679C189.472 919.679 187.867 920.882 187.872 922.682C187.872 924.143 188.911 924.984 190.586 925.416L191.744 925.714C192.843 925.993 193.569 926.336 193.574 927.126C193.569 927.996 192.744 928.578 191.541 928.578C190.387 928.578 189.492 928.061 189.418 926.992H187.603C187.678 929.016 189.184 930.154 191.556 930.154C193.997 930.154 195.414 928.936 195.419 927.141C195.414 925.376 193.957 924.571 192.426 924.208L191.471 923.969C190.636 923.771 189.731 923.418 189.741 922.567C189.746 921.802 190.432 921.24 191.585 921.24C192.684 921.24 193.41 921.752 193.504 922.617ZM202.536 930H204.38V925.675H208.611V924.129H204.38V921.364H209.058V919.818H202.536V930ZM211.739 930H218.401V928.454H213.583V925.675H218.018V924.129H213.583V921.364H218.361V919.818H211.739V930ZM222.55 930L223.39 927.489H227.218L228.064 930H230.032L226.443 919.818H224.166L220.581 930H222.55ZM223.887 926.008L225.265 921.906H225.344L226.721 926.008H223.887ZM230.695 921.364H233.843V930H235.672V921.364H238.819V919.818H230.695V921.364ZM247.803 919.818V926.316C247.803 927.594 246.914 928.509 245.517 928.509C244.115 928.509 243.23 927.594 243.23 926.316V919.818H241.385V926.47C241.385 928.658 243.026 930.154 245.517 930.154C247.997 930.154 249.648 928.658 249.648 926.47V919.818H247.803ZM252.653 930H254.497V926.271H256.376L258.375 930H260.433L258.231 925.963C259.429 925.481 260.06 924.457 260.06 923.075C260.06 921.131 258.808 919.818 256.471 919.818H252.653V930ZM254.497 924.74V921.359H256.188C257.565 921.359 258.181 921.991 258.181 923.075C258.181 924.158 257.565 924.74 256.197 924.74H254.497ZM262.758 930H269.42V928.454H264.603V925.675H269.037V924.129H264.603V921.364H269.38V919.818H262.758V930ZM275.712 930C278.815 930 280.654 928.081 280.654 924.899C280.654 921.727 278.815 919.818 275.782 919.818H272.262V930H275.712ZM274.107 928.404V921.414H275.678C277.746 921.414 278.825 922.567 278.825 924.899C278.825 927.241 277.746 928.404 275.623 928.404H274.107ZM289.724 919.818H287.879V930H289.724V919.818ZM301.088 919.818H299.254V926.759H299.164L294.372 919.818H292.721V930H294.566V923.065H294.65L299.448 930H301.088V919.818Z" fill="#EFEDE8" fill-opacity="0.65"/>
</g>
<g id="Purple Box">
<rect id="Rectangle 13" x="1089" y="656" width="193" height="98" rx="12" fill="#C82CEF"/>
<path id="300+" d="M1136.03 711.398C1142.25 711.398 1146.78 707.832 1146.76 702.918C1146.78 699.281 1144.51 696.668 1140.43 696.085V695.858C1143.58 695.176 1145.7 692.832 1145.68 689.565C1145.7 685.134 1141.92 681.511 1136.11 681.511C1130.46 681.511 1126.08 684.878 1125.97 689.75H1131.04C1131.12 687.307 1133.4 685.787 1136.08 685.787C1138.8 685.787 1140.6 687.435 1140.59 689.878C1140.6 692.42 1138.5 694.111 1135.49 694.111H1132.91V698.173H1135.49C1139.16 698.173 1141.35 700.02 1141.34 702.648C1141.35 705.219 1139.12 706.98 1136.01 706.98C1133.09 706.98 1130.83 705.46 1130.7 703.088H1125.36C1125.5 708.003 1129.89 711.398 1136.03 711.398ZM1163.39 711.554C1170.41 711.568 1174.6 706.028 1174.6 696.483C1174.6 686.994 1170.38 681.511 1163.39 681.511C1156.4 681.511 1152.2 686.98 1152.19 696.483C1152.19 706.014 1156.38 711.554 1163.39 711.554ZM1163.39 707.108C1159.77 707.108 1157.5 703.472 1157.51 696.483C1157.53 689.551 1159.78 685.901 1163.39 685.901C1167.01 685.901 1169.27 689.551 1169.29 696.483C1169.29 703.472 1167.03 707.108 1163.39 707.108ZM1191.07 711.554C1198.09 711.568 1202.28 706.028 1202.28 696.483C1202.28 686.994 1198.06 681.511 1191.07 681.511C1184.08 681.511 1179.88 686.98 1179.87 696.483C1179.87 706.014 1184.06 711.554 1191.07 711.554ZM1191.07 707.108C1187.45 707.108 1185.18 703.472 1185.19 696.483C1185.21 689.551 1187.46 685.901 1191.07 685.901C1194.69 685.901 1196.95 689.551 1196.97 696.483C1196.97 703.472 1194.71 707.108 1191.07 707.108ZM1216.64 706.341H1221.1V698.741H1228.7V694.281H1221.1V686.682H1216.64V694.281H1209.04V698.741H1216.64V706.341Z" fill="#FAFAF9"/>
<path id="Free Workout Videos" d="M1109.23 737H1110.47V732.446H1114.88V731.352H1110.47V727.912H1115.34V726.818H1109.23V737ZM1118.21 737H1119.38V732.168C1119.38 731.134 1120.2 730.378 1121.31 730.378C1121.62 730.378 1121.95 730.438 1122.03 730.457V729.264C1121.89 729.254 1121.58 729.244 1121.41 729.244C1120.5 729.244 1119.7 729.761 1119.42 730.517H1119.34V729.364H1118.21V737ZM1127.39 737.159C1128.94 737.159 1130.07 736.384 1130.43 735.23L1129.3 734.912C1129 735.707 1128.31 736.105 1127.39 736.105C1126.01 736.105 1125.06 735.215 1125.01 733.58H1130.55V733.082C1130.55 730.239 1128.86 729.264 1127.27 729.264C1125.2 729.264 1123.83 730.895 1123.83 733.241C1123.83 735.588 1125.18 737.159 1127.39 737.159ZM1125.01 732.565C1125.09 731.377 1125.93 730.318 1127.27 730.318C1128.54 730.318 1129.36 731.273 1129.36 732.565H1125.01ZM1136.54 737.159C1138.09 737.159 1139.22 736.384 1139.58 735.23L1138.44 734.912C1138.15 735.707 1137.46 736.105 1136.54 736.105C1135.16 736.105 1134.21 735.215 1134.15 733.58H1139.7V733.082C1139.7 730.239 1138.01 729.264 1136.42 729.264C1134.35 729.264 1132.98 730.895 1132.98 733.241C1132.98 735.588 1134.33 737.159 1136.54 737.159ZM1134.15 732.565C1134.23 731.377 1135.07 730.318 1136.42 730.318C1137.69 730.318 1138.5 731.273 1138.5 732.565H1134.15ZM1149.43 737H1150.7L1152.95 728.886H1153.03L1155.27 737H1156.55L1159.33 726.818H1158.08L1155.95 735.111H1155.85L1153.68 726.818H1152.29L1150.12 735.111H1150.02L1147.9 726.818H1146.64L1149.43 737ZM1164.1 737.159C1166.17 737.159 1167.56 735.588 1167.56 733.222C1167.56 730.835 1166.17 729.264 1164.1 729.264C1162.03 729.264 1160.64 730.835 1160.64 733.222C1160.64 735.588 1162.03 737.159 1164.1 737.159ZM1164.1 736.105C1162.53 736.105 1161.81 734.753 1161.81 733.222C1161.81 731.69 1162.53 730.318 1164.1 730.318C1165.67 730.318 1166.39 731.69 1166.39 733.222C1166.39 734.753 1165.67 736.105 1164.1 736.105ZM1170.35 737H1171.52V732.168C1171.52 731.134 1172.34 730.378 1173.45 730.378C1173.77 730.378 1174.09 730.438 1174.17 730.457V729.264C1174.04 729.254 1173.73 729.244 1173.55 729.244C1172.64 729.244 1171.84 729.761 1171.56 730.517H1171.48V729.364H1170.35V737ZM1176.56 737H1177.73V734.141L1178.55 733.381L1181.41 737H1182.9L1179.44 732.625L1182.67 729.364H1181.21L1177.87 732.764H1177.73V726.818H1176.56V737ZM1187.96 737.159C1190.03 737.159 1191.42 735.588 1191.42 733.222C1191.42 730.835 1190.03 729.264 1187.96 729.264C1185.9 729.264 1184.5 730.835 1184.5 733.222C1184.5 735.588 1185.9 737.159 1187.96 737.159ZM1187.96 736.105C1186.39 736.105 1185.68 734.753 1185.68 733.222C1185.68 731.69 1186.39 730.318 1187.96 730.318C1189.53 730.318 1190.25 731.69 1190.25 733.222C1190.25 734.753 1189.53 736.105 1187.96 736.105ZM1199.03 733.878C1199.03 735.31 1197.93 735.966 1197.06 735.966C1196.08 735.966 1195.39 735.25 1195.39 734.136V729.364H1194.21V734.216C1194.21 736.165 1195.25 737.099 1196.68 737.099C1197.83 737.099 1198.59 736.483 1198.95 735.707H1199.03V737H1200.2V729.364H1199.03V733.878ZM1206.67 729.364H1205.04V727.534H1203.87V729.364H1202.71V730.358H1203.87V735.131C1203.87 736.463 1204.94 737.099 1205.93 737.099C1206.37 737.099 1206.65 737.02 1206.81 736.96L1206.57 735.906C1206.47 735.926 1206.31 735.966 1206.05 735.966C1205.54 735.966 1205.04 735.807 1205.04 734.812V730.358H1206.67V729.364ZM1214.95 726.818H1213.66L1217.4 737H1218.67L1222.41 726.818H1221.11L1218.09 735.389H1217.97L1214.95 726.818ZM1224.83 737H1226.01V729.364H1224.83V737ZM1225.43 728.091C1225.89 728.091 1226.27 727.733 1226.27 727.295C1226.27 726.858 1225.89 726.5 1225.43 726.5C1224.97 726.5 1224.59 726.858 1224.59 727.295C1224.59 727.733 1224.97 728.091 1225.43 728.091ZM1232.04 737.159C1233.51 737.159 1234.01 736.244 1234.27 735.827H1234.41V737H1235.54V726.818H1234.37V730.577H1234.27C1234.01 730.179 1233.55 729.264 1232.06 729.264C1230.13 729.264 1228.8 730.795 1228.8 733.202C1228.8 735.628 1230.13 737.159 1232.04 737.159ZM1232.2 736.105C1230.73 736.105 1229.97 734.812 1229.97 733.182C1229.97 731.571 1230.71 730.318 1232.2 730.318C1233.63 730.318 1234.39 731.472 1234.39 733.182C1234.39 734.912 1233.61 736.105 1232.2 736.105ZM1242.05 737.159C1243.6 737.159 1244.74 736.384 1245.1 735.23L1243.96 734.912C1243.66 735.707 1242.97 736.105 1242.05 736.105C1240.68 736.105 1239.73 735.215 1239.67 733.58H1245.21V733.082C1245.21 730.239 1243.52 729.264 1241.93 729.264C1239.87 729.264 1238.49 730.895 1238.49 733.241C1238.49 735.588 1239.85 737.159 1242.05 737.159ZM1239.67 732.565C1239.75 731.377 1240.59 730.318 1241.93 730.318C1243.21 730.318 1244.02 731.273 1244.02 732.565H1239.67ZM1251.1 737.159C1253.17 737.159 1254.56 735.588 1254.56 733.222C1254.56 730.835 1253.17 729.264 1251.1 729.264C1249.03 729.264 1247.64 730.835 1247.64 733.222C1247.64 735.588 1249.03 737.159 1251.1 737.159ZM1251.1 736.105C1249.53 736.105 1248.81 734.753 1248.81 733.222C1248.81 731.69 1249.53 730.318 1251.1 730.318C1252.67 730.318 1253.39 731.69 1253.39 733.222C1253.39 734.753 1252.67 736.105 1251.1 736.105ZM1262.76 731.074C1262.39 729.99 1261.57 729.264 1260.06 729.264C1258.45 729.264 1257.25 730.179 1257.25 731.472C1257.25 732.526 1257.88 733.232 1259.28 733.56L1260.55 733.858C1261.33 734.037 1261.69 734.405 1261.69 734.932C1261.69 735.588 1260.99 736.125 1259.9 736.125C1258.94 736.125 1258.34 735.712 1258.13 734.892L1257.02 735.17C1257.29 736.468 1258.36 737.159 1259.92 737.159C1261.69 737.159 1262.9 736.19 1262.9 734.872C1262.9 733.808 1262.24 733.137 1260.87 732.804L1259.74 732.526C1258.83 732.302 1258.43 731.999 1258.43 731.412C1258.43 730.756 1259.12 730.278 1260.06 730.278C1261.08 730.278 1261.5 730.845 1261.71 731.372L1262.76 731.074Z" fill="#EFEDE8" fill-opacity="0.65"/>
</g>
<g id="Blue Box">
<path id="Rectangle 17" d="M840 791C840 784.373 845.373 779 852 779H1276C1282.63 779 1288 784.373 1288 791V908C1288 914.627 1282.63 920 1276 920H852C845.373 920 840 914.627 840 908V791Z" fill="#3099BA"/>
<g id="Group 23">
<g id="Group 37">
<g id="Group 22">
<path id="BE YOUR BEST." d="M873.722 826H880.787C884.784 826 886.744 823.963 886.744 821.244C886.744 818.602 884.869 817.051 883.011 816.957V816.787C884.716 816.386 886.062 815.193 886.062 813.071C886.062 810.472 884.188 808.545 880.403 808.545H873.722V826ZM876.884 823.358V818.244H880.369C882.321 818.244 883.531 819.438 883.531 820.997C883.531 822.386 882.577 823.358 880.284 823.358H876.884ZM876.884 815.969V811.153H880.08C881.938 811.153 882.901 812.134 882.901 813.48C882.901 815.014 881.656 815.969 880.011 815.969H876.884ZM889.795 826H901.215V823.349H892.957V818.585H900.559V815.935H892.957V811.196H901.147V808.545H889.795V826ZM909.733 808.545L916.083 819.489V826H919.236V819.489L925.585 808.545H922.014L917.744 816.267H917.574L913.304 808.545H909.733ZM942.737 817.273C942.737 811.631 939.294 808.307 934.717 808.307C930.132 808.307 926.697 811.631 926.697 817.273C926.697 822.906 930.132 826.239 934.717 826.239C939.294 826.239 942.737 822.915 942.737 817.273ZM939.558 817.273C939.558 821.244 937.564 823.401 934.717 823.401C931.879 823.401 929.876 821.244 929.876 817.273C929.876 813.301 931.879 811.145 934.717 811.145C937.564 811.145 939.558 813.301 939.558 817.273ZM957.029 808.545V819.685C957.029 821.875 955.504 823.443 953.109 823.443C950.705 823.443 949.188 821.875 949.188 819.685V808.545H946.026V819.949C946.026 823.699 948.839 826.264 953.109 826.264C957.362 826.264 960.191 823.699 960.191 819.949V808.545H957.029ZM963.928 826H967.09V819.608H970.311L973.738 826H977.266L973.49 819.08C975.544 818.253 976.627 816.497 976.627 814.128C976.627 810.795 974.479 808.545 970.473 808.545H963.928V826ZM967.09 816.983V811.188H969.988C972.348 811.188 973.405 812.27 973.405 814.128C973.405 815.986 972.348 816.983 970.005 816.983H967.09ZM986.09 826H993.156C997.153 826 999.113 823.963 999.113 821.244C999.113 818.602 997.238 817.051 995.38 816.957V816.787C997.085 816.386 998.431 815.193 998.431 813.071C998.431 810.472 996.556 808.545 992.772 808.545H986.09V826ZM989.252 823.358V818.244H992.738C994.69 818.244 995.9 819.438 995.9 820.997C995.9 822.386 994.945 823.358 992.653 823.358H989.252ZM989.252 815.969V811.153H992.448C994.306 811.153 995.269 812.134 995.269 813.48C995.269 815.014 994.025 815.969 992.38 815.969H989.252ZM1002.16 826H1013.58V823.349H1005.33V818.585H1012.93V815.935H1005.33V811.196H1013.52V808.545H1002.16V826ZM1026.53 813.344H1029.57C1029.51 810.395 1027 808.307 1023.28 808.307C1019.62 808.307 1016.86 810.369 1016.87 813.455C1016.87 815.96 1018.65 817.401 1021.52 818.142L1023.51 818.653C1025.39 819.131 1026.64 819.719 1026.65 821.074C1026.64 822.565 1025.22 823.562 1023.16 823.562C1021.18 823.562 1019.65 822.676 1019.52 820.844H1016.41C1016.54 824.312 1019.12 826.264 1023.19 826.264C1027.37 826.264 1029.8 824.176 1029.81 821.099C1029.8 818.074 1027.3 816.693 1024.68 816.071L1023.04 815.662C1021.61 815.321 1020.06 814.716 1020.08 813.259C1020.08 811.946 1021.26 810.983 1023.24 810.983C1025.12 810.983 1026.37 811.861 1026.53 813.344ZM1032.16 811.196H1037.56V826H1040.69V811.196H1046.09V808.545H1032.16V811.196ZM1050.02 826.188C1051.02 826.188 1051.88 825.352 1051.89 824.312C1051.88 823.29 1051.02 822.455 1050.02 822.455C1048.98 822.455 1048.13 823.29 1048.14 824.312C1048.13 825.352 1048.98 826.188 1050.02 826.188Z" fill="#FAFAF9"/>
<path id="MAKE GOALS. CHECK THEM OFF." d="M873.409 840.364V852H874.727V843.159H874.841L878.477 852H879.75L883.386 843.159H883.5V852H884.818V840.364H883.136L879.182 850.023H879.045L875.091 840.364H873.409ZM888.621 852L889.791 848.705H894.496L895.666 852H897.143L892.871 840.364H891.416L887.143 852H888.621ZM890.234 847.455L892.098 842.205H892.189L894.053 847.455H890.234ZM899.456 852H900.865V848.227L902.32 846.591L906.365 852H908.07L903.183 845.614L908.07 840.364H906.229L901.001 846.136H900.865V840.364H899.456V852ZM910.393 852H917.507V850.75H911.803V846.795H917.053V845.545H911.803V841.614H917.416V840.364H910.393V852ZM933.411 844H934.865C934.433 841.75 932.547 840.205 930.092 840.205C927.109 840.205 925.001 842.5 925.001 846.182C925.001 849.864 927.092 852.159 930.183 852.159C932.956 852.159 934.933 850.312 934.933 847.432V846.182H930.501V847.432H933.57C933.53 849.523 932.155 850.841 930.183 850.841C928.024 850.841 926.365 849.205 926.365 846.182C926.365 843.159 928.024 841.523 930.092 841.523C931.774 841.523 932.916 842.472 933.411 844ZM947.665 846.182C947.665 842.5 945.506 840.205 942.528 840.205C939.551 840.205 937.392 842.5 937.392 846.182C937.392 849.864 939.551 852.159 942.528 852.159C945.506 852.159 947.665 849.864 947.665 846.182ZM946.301 846.182C946.301 849.205 944.642 850.841 942.528 850.841C940.415 850.841 938.756 849.205 938.756 846.182C938.756 843.159 940.415 841.523 942.528 841.523C944.642 841.523 946.301 843.159 946.301 846.182ZM950.464 852L951.635 848.705H956.339L957.51 852H958.987L954.714 840.364H953.26L948.987 852H950.464ZM952.078 847.455L953.942 842.205H954.033L955.896 847.455H952.078ZM961.3 852H968.118V850.75H962.709V840.364H961.3V852ZM977.163 843.273H978.527C978.464 841.517 976.845 840.205 974.595 840.205C972.368 840.205 970.618 841.5 970.618 843.455C970.618 845.023 971.754 845.955 973.572 846.477L975.004 846.886C976.232 847.227 977.322 847.659 977.322 848.818C977.322 850.091 976.095 850.932 974.482 850.932C973.095 850.932 971.868 850.318 971.754 849H970.3C970.436 850.909 971.982 852.205 974.482 852.205C977.163 852.205 978.686 850.727 978.686 848.841C978.686 846.659 976.618 845.955 975.413 845.636L974.232 845.318C973.368 845.091 971.982 844.636 971.982 843.386C971.982 842.273 973.004 841.455 974.55 841.455C975.959 841.455 977.027 842.125 977.163 843.273ZM982.298 852.091C982.861 852.091 983.321 851.631 983.321 851.068C983.321 850.506 982.861 850.045 982.298 850.045C981.736 850.045 981.276 850.506 981.276 851.068C981.276 851.631 981.736 852.091 982.298 852.091ZM1000.77 844C1000.34 841.614 998.432 840.205 996.091 840.205C993.114 840.205 990.955 842.5 990.955 846.182C990.955 849.864 993.114 852.159 996.091 852.159C998.432 852.159 1000.34 850.75 1000.77 848.364H999.364C999.023 849.977 997.636 850.841 996.091 850.841C993.977 850.841 992.318 849.205 992.318 846.182C992.318 843.159 993.977 841.523 996.091 841.523C997.636 841.523 999.023 842.386 999.364 844H1000.77ZM1003.55 852H1004.96V846.795H1011.16V852H1012.57V840.364H1011.16V845.545H1004.96V840.364H1003.55V852ZM1015.89 852H1023.01V850.75H1017.3V846.795H1022.55V845.545H1017.3V841.614H1022.92V840.364H1015.89V852ZM1035.32 844C1034.89 841.614 1032.98 840.205 1030.64 840.205C1027.66 840.205 1025.5 842.5 1025.5 846.182C1025.5 849.864 1027.66 852.159 1030.64 852.159C1032.98 852.159 1034.89 850.75 1035.32 848.364H1033.91C1033.57 849.977 1032.18 850.841 1030.64 850.841C1028.52 850.841 1026.87 849.205 1026.87 846.182C1026.87 843.159 1028.52 841.523 1030.64 841.523C1032.18 841.523 1033.57 842.386 1033.91 844H1035.32ZM1038.1 852H1039.51V848.227L1040.96 846.591L1045.01 852H1046.71L1041.82 845.614L1046.71 840.364H1044.87L1039.64 846.136H1039.51V840.364H1038.1V852ZM1053.4 841.614H1057.06V852H1058.47V841.614H1062.12V840.364H1053.4V841.614ZM1064.8 852H1066.21V846.795H1072.41V852H1073.82V840.364H1072.41V845.545H1066.21V840.364H1064.8V852ZM1077.14 852H1084.26V850.75H1078.55V846.795H1083.8V845.545H1078.55V841.614H1084.17V840.364H1077.14V852ZM1087.21 840.364V852H1088.52V843.159H1088.64L1092.27 852H1093.55L1097.18 843.159H1097.3V852H1098.62V840.364H1096.93L1092.98 850.023H1092.84L1088.89 840.364H1087.21ZM1116.76 846.182C1116.76 842.5 1114.6 840.205 1111.62 840.205C1108.64 840.205 1106.49 842.5 1106.49 846.182C1106.49 849.864 1108.64 852.159 1111.62 852.159C1114.6 852.159 1116.76 849.864 1116.76 846.182ZM1115.39 846.182C1115.39 849.205 1113.74 850.841 1111.62 850.841C1109.51 850.841 1107.85 849.205 1107.85 846.182C1107.85 843.159 1109.51 841.523 1111.62 841.523C1113.74 841.523 1115.39 843.159 1115.39 846.182ZM1119.63 852H1121.04V846.795H1126.08V845.545H1121.04V841.614H1126.61V840.364H1119.63V852ZM1129.52 852H1130.93V846.795H1135.97V845.545H1130.93V841.614H1136.5V840.364H1129.52V852ZM1139.66 852.091C1140.22 852.091 1140.68 851.631 1140.68 851.068C1140.68 850.506 1140.22 850.045 1139.66 850.045C1139.1 850.045 1138.63 850.506 1138.63 851.068C1138.63 851.631 1139.1 852.091 1139.66 852.091Z" fill="#EFEDE8" fill-opacity="0.65"/>
</g>
</g>
</g>
</g>
<g id="Green Box">
<rect id="Rectangle 15" x="641" y="809" width="178.424" height="110.721" rx="12" fill="#169D00"/>
<path id="YOU CAN" d="M679.989 821.812L692.722 844.38V856.721H700.051V844.38L712.784 821.812H704.517L696.557 836.846H696.216L688.256 821.812H679.989ZM741.786 839.266C741.786 827.846 734.695 821.334 725.439 821.334C716.132 821.334 709.092 827.846 709.092 839.266C709.092 850.636 716.132 857.198 725.439 857.198C734.695 857.198 741.786 850.687 741.786 839.266ZM734.303 839.266C734.303 846.664 730.791 850.67 725.439 850.67C720.07 850.67 716.575 846.664 716.575 839.266C716.575 831.869 720.07 827.863 725.439 827.863C730.791 827.863 734.303 831.869 734.303 839.266ZM763.815 821.812V843.852C763.815 847.84 761.02 850.721 756.724 850.721C752.446 850.721 749.634 847.84 749.634 843.852V821.812H742.253V844.482C742.253 852.119 748.014 857.215 756.724 857.215C765.401 857.215 771.196 852.119 771.196 844.482V821.812H763.815ZM712.835 884.033C711.864 875.971 705.761 871.334 697.682 871.334C688.46 871.334 681.42 877.846 681.42 889.266C681.42 900.653 688.341 907.198 697.682 907.198C706.631 907.198 712.034 901.249 712.835 894.823L705.369 894.789C704.67 898.522 701.739 900.67 697.801 900.67C692.5 900.67 688.903 896.732 688.903 889.266C688.903 882.005 692.449 877.863 697.852 877.863C701.892 877.863 704.807 880.198 705.369 884.033H712.835ZM718.489 906.721L721.08 898.761H733.676L736.267 906.721H744.176L732.142 871.812H722.631L710.58 906.721H718.489ZM722.955 892.999L727.25 879.789H727.523L731.818 892.999H722.955ZM772.577 871.812H765.23V893.766H764.923L749.855 871.812H743.378V906.721H750.759V884.749H751.014L766.202 906.721H772.577V871.812Z" fill="#FAFAF9"/>
</g>
<g id="WorkOutTracker title">
<path id="Make a plan. Stick with it." d="M145.409 626.364V638H146.727V629.159H146.841L150.477 638H151.75L155.386 629.159H155.5V638H156.818V626.364H155.136L151.182 636.023H151.045L147.091 626.364H145.409ZM162.53 638.205C164.053 638.205 164.848 637.386 165.121 636.818H165.189V638H166.53V632.25C166.53 629.477 164.416 629.159 163.303 629.159C161.984 629.159 160.484 629.614 159.803 631.205L161.075 631.659C161.371 631.023 162.07 630.341 163.348 630.341C164.581 630.341 165.189 630.994 165.189 632.114V632.159C165.189 632.807 164.53 632.75 162.939 632.955C161.32 633.165 159.553 633.523 159.553 635.523C159.553 637.227 160.871 638.205 162.53 638.205ZM162.734 637C161.666 637 160.893 636.523 160.893 635.591C160.893 634.568 161.825 634.25 162.871 634.114C163.439 634.045 164.962 633.886 165.189 633.614V634.841C165.189 635.932 164.325 637 162.734 637ZM169.477 638H170.818V634.733L171.756 633.864L175.023 638H176.727L172.767 633L176.455 629.273H174.795L170.977 633.159H170.818V626.364H169.477V638ZM181.98 638.182C183.753 638.182 185.048 637.295 185.457 635.977L184.162 635.614C183.821 636.523 183.031 636.977 181.98 636.977C180.406 636.977 179.321 635.96 179.259 634.091H185.594V633.523C185.594 630.273 183.662 629.159 181.844 629.159C179.48 629.159 177.912 631.023 177.912 633.705C177.912 636.386 179.457 638.182 181.98 638.182ZM179.259 632.932C179.349 631.574 180.31 630.364 181.844 630.364C183.298 630.364 184.23 631.455 184.23 632.932H179.259ZM195.702 638.205C197.224 638.205 198.02 637.386 198.293 636.818H198.361V638H199.702V632.25C199.702 629.477 197.588 629.159 196.474 629.159C195.156 629.159 193.656 629.614 192.974 631.205L194.247 631.659C194.543 631.023 195.241 630.341 196.52 630.341C197.753 630.341 198.361 630.994 198.361 632.114V632.159C198.361 632.807 197.702 632.75 196.111 632.955C194.491 633.165 192.724 633.523 192.724 635.523C192.724 637.227 194.043 638.205 195.702 638.205ZM195.906 637C194.838 637 194.065 636.523 194.065 635.591C194.065 634.568 194.997 634.25 196.043 634.114C196.611 634.045 198.134 633.886 198.361 633.614V634.841C198.361 635.932 197.497 637 195.906 637ZM207.649 641.273H208.99V636.659H209.104C209.399 637.136 209.967 638.182 211.649 638.182C213.831 638.182 215.354 636.432 215.354 633.659C215.354 630.909 213.831 629.159 211.626 629.159C209.922 629.159 209.399 630.205 209.104 630.659H208.945V629.273H207.649V641.273ZM208.967 633.636C208.967 631.682 209.831 630.364 211.467 630.364C213.172 630.364 214.013 631.795 214.013 633.636C214.013 635.5 213.149 636.977 211.467 636.977C209.854 636.977 208.967 635.614 208.967 633.636ZM219.24 626.364H217.899V638H219.24V626.364ZM224.764 638.205C226.287 638.205 227.082 637.386 227.355 636.818H227.423V638H228.764V632.25C228.764 629.477 226.651 629.159 225.537 629.159C224.219 629.159 222.719 629.614 222.037 631.205L223.31 631.659C223.605 631.023 224.304 630.341 225.582 630.341C226.815 630.341 227.423 630.994 227.423 632.114V632.159C227.423 632.807 226.764 632.75 225.173 632.955C223.554 633.165 221.787 633.523 221.787 635.523C221.787 637.227 223.105 638.205 224.764 638.205ZM224.969 637C223.901 637 223.128 636.523 223.128 635.591C223.128 634.568 224.06 634.25 225.105 634.114C225.673 634.045 227.196 633.886 227.423 633.614V634.841C227.423 635.932 226.56 637 224.969 637ZM233.053 632.75C233.053 631.227 233.996 630.364 235.28 630.364C236.524 630.364 237.28 631.176 237.28 632.545V638H238.621V632.455C238.621 630.227 237.433 629.159 235.666 629.159C234.348 629.159 233.53 629.75 233.121 630.636H233.007V629.273H231.712V638H233.053V632.75ZM242.548 638.091C243.111 638.091 243.571 637.631 243.571 637.068C243.571 636.506 243.111 636.045 242.548 636.045C241.986 636.045 241.526 636.506 241.526 637.068C241.526 637.631 241.986 638.091 242.548 638.091ZM258.023 629.273H259.386C259.324 627.517 257.705 626.205 255.455 626.205C253.227 626.205 251.477 627.5 251.477 629.455C251.477 631.023 252.614 631.955 254.432 632.477L255.864 632.886C257.091 633.227 258.182 633.659 258.182 634.818C258.182 636.091 256.955 636.932 255.341 636.932C253.955 636.932 252.727 636.318 252.614 635H251.159C251.295 636.909 252.841 638.205 255.341 638.205C258.023 638.205 259.545 636.727 259.545 634.841C259.545 632.659 257.477 631.955 256.273 631.636L255.091 631.318C254.227 631.091 252.841 630.636 252.841 629.386C252.841 628.273 253.864 627.455 255.409 627.455C256.818 627.455 257.886 628.125 258.023 629.273ZM265.976 629.273H264.112V627.182H262.771V629.273H261.453V630.409H262.771V635.864C262.771 637.386 263.999 638.114 265.135 638.114C265.635 638.114 265.953 638.023 266.135 637.955L265.862 636.75C265.749 636.773 265.567 636.818 265.271 636.818C264.68 636.818 264.112 636.636 264.112 635.5V630.409H265.976V629.273ZM268.493 638H269.834V629.273H268.493V638ZM269.175 627.818C269.697 627.818 270.129 627.409 270.129 626.909C270.129 626.409 269.697 626 269.175 626C268.652 626 268.22 626.409 268.22 626.909C268.22 627.409 268.652 627.818 269.175 627.818ZM276.335 638.182C278.267 638.182 279.54 637 279.767 635.455H278.426C278.176 636.409 277.381 636.977 276.335 636.977C274.744 636.977 273.722 635.659 273.722 633.636C273.722 631.659 274.767 630.364 276.335 630.364C277.517 630.364 278.222 631.091 278.426 631.886H279.767C279.54 630.25 278.153 629.159 276.312 629.159C273.949 629.159 272.381 631.023 272.381 633.682C272.381 636.295 273.881 638.182 276.335 638.182ZM282.227 638H283.568V634.733L284.506 633.864L287.773 638H289.477L285.517 633L289.205 629.273H287.545L283.727 633.159H283.568V626.364H282.227V638ZM298.408 638H299.726L301.635 631.295H301.771L303.68 638H304.999L307.658 629.273H306.249L304.362 635.932H304.271L302.43 629.273H300.999L299.135 635.955H299.044L297.158 629.273H295.749L298.408 638ZM309.93 638H311.271V629.273H309.93V638ZM310.612 627.818C311.135 627.818 311.567 627.409 311.567 626.909C311.567 626.409 311.135 626 310.612 626C310.089 626 309.658 626.409 309.658 626.909C309.658 627.409 310.089 627.818 310.612 627.818ZM318.023 629.273H316.159V627.182H314.818V629.273H313.5V630.409H314.818V635.864C314.818 637.386 316.045 638.114 317.182 638.114C317.682 638.114 318 638.023 318.182 637.955L317.909 636.75C317.795 636.773 317.614 636.818 317.318 636.818C316.727 636.818 316.159 636.636 316.159 635.5V630.409H318.023V629.273ZM322.068 632.75C322.068 631.227 323.04 630.364 324.364 630.364C325.625 630.364 326.386 631.159 326.386 632.545V638H327.727V632.455C327.727 630.21 326.534 629.159 324.75 629.159C323.375 629.159 322.591 629.733 322.182 630.636H322.068V626.364H320.727V638H322.068V632.75ZM335.68 638H337.021V629.273H335.68V638ZM336.362 627.818C336.885 627.818 337.317 627.409 337.317 626.909C337.317 626.409 336.885 626 336.362 626C335.839 626 335.408 626.409 335.408 626.909C335.408 627.409 335.839 627.818 336.362 627.818ZM343.773 629.273H341.909V627.182H340.568V629.273H339.25V630.409H340.568V635.864C340.568 637.386 341.795 638.114 342.932 638.114C343.432 638.114 343.75 638.023 343.932 637.955L343.659 636.75C343.545 636.773 343.364 636.818 343.068 636.818C342.477 636.818 341.909 636.636 341.909 635.5V630.409H343.773V629.273ZM347.267 638.091C347.83 638.091 348.29 637.631 348.29 637.068C348.29 636.506 347.83 636.045 347.267 636.045C346.705 636.045 346.244 636.506 346.244 637.068C346.244 637.631 346.705 638.091 347.267 638.091Z" fill="white"/>
<g id="workout tracker">
<path id="workout tracker_2" d="M169.281 425.391C167.328 425.13 164.008 425 159.32 425H147.992C145.779 425 143.956 425.065 142.523 425.195L142.426 425C142.686 424.544 142.816 424.023 142.816 423.438C142.816 422.852 142.751 422.233 142.621 421.582C142.556 420.931 142.296 419.759 141.84 418.066C141.449 416.374 140.831 413.932 139.984 410.742L106.781 294.727C110.948 294.987 115.993 295.117 121.918 295.117C127.842 295.117 131.684 294.857 133.441 294.336L156.488 382.715L178.949 294.727C179.926 294.792 180.805 294.857 181.586 294.922H183.734C185.883 295.052 188.585 295.117 191.84 295.117C195.095 295.117 198.448 294.857 201.898 294.336L224.75 382.715L244.379 294.727C248.285 294.987 253.396 295.117 259.711 295.117C266.026 295.117 269.867 294.857 271.234 294.336L243.109 397.363C239.529 409.212 237.641 416.243 237.445 418.457C237.25 420.671 237.152 422.201 237.152 423.047C237.152 423.893 237.283 424.577 237.543 425.098L237.348 425.391C235.264 425.13 231.977 425 227.484 425C223.578 425 220.03 425 216.84 425C213.65 425 211.339 425.065 209.906 425.195L209.809 425C210.069 424.544 210.199 424.023 210.199 423.438C210.199 422.852 210.167 422.266 210.102 421.68C210.036 421.094 209.841 419.987 209.516 418.359C209.255 416.667 208.799 414.193 208.148 410.938L205.512 397.656L189.496 336.816L174.262 397.363C171.137 409.798 169.509 416.96 169.379 418.848C169.118 422.428 169.151 424.512 169.477 425.098L169.281 425.391ZM298.434 409.57C292.509 403.906 287.822 397.103 284.371 389.16C280.986 381.217 279.293 372.526 279.293 363.086C279.293 353.581 280.888 344.596 284.078 336.133C287.268 327.669 291.826 320.215 297.75 313.77C303.674 307.324 310.836 302.214 319.234 298.438C327.633 294.596 337.04 292.676 347.457 292.676C365.426 292.676 380.562 298.34 392.867 309.668C406.018 321.777 412.594 338.118 412.594 358.691C412.594 378.613 405.823 395.182 392.281 408.398C383.948 416.536 374.02 422.135 362.496 425.195C356.832 426.693 350.191 427.441 342.574 427.441C335.022 427.441 327.242 425.879 319.234 422.754C311.292 419.629 304.358 415.234 298.434 409.57ZM306.441 361.719C306.441 367.773 307.451 373.34 309.469 378.418C311.487 383.496 314.286 387.858 317.867 391.504C325.484 399.186 335.283 403.027 347.262 403.027C358.655 403.027 367.802 399.349 374.703 391.992C381.734 384.375 385.25 373.991 385.25 360.84C385.25 348.47 381.897 338.151 375.191 329.883C367.965 321.029 358.069 316.602 345.504 316.602C333.329 316.602 323.661 321.094 316.5 330.078C309.794 338.477 306.441 349.023 306.441 361.719ZM477.781 374.512C475.828 374.642 473.745 374.707 471.531 374.707C469.318 374.707 466.03 374.544 461.668 374.219V425H435.789V294.434C444.904 293.262 456.102 292.676 469.383 292.676C487.482 292.676 500.958 296.029 509.812 302.734C518.732 309.375 523.191 319.661 523.191 333.594C523.191 344.401 519.122 353.646 510.984 361.328C508.315 363.802 505.255 365.951 501.805 367.773L521.727 409.766C525.633 418.424 528.628 423.568 530.711 425.195L530.223 425.684C523.908 424.642 513.979 424.674 500.438 425.781L477.781 374.512ZM471.238 315.723C467.918 315.723 464.728 315.885 461.668 316.211V353.516C464.858 353.971 468.602 354.199 472.898 354.199C477.195 354.199 480.809 353.841 483.738 353.125C486.668 352.344 489.207 351.172 491.355 349.609C495.978 346.159 498.289 340.983 498.289 334.082C498.289 327.181 495.88 322.331 491.062 319.531C486.57 316.992 479.962 315.723 471.238 315.723ZM575.293 425.586C570.801 425.195 565.072 425 558.105 425H550.391V294.727L554.297 294.922C557.031 295.052 559.082 295.117 560.449 295.117H563.281C569.01 295.117 573.014 294.857 575.293 294.336V349.512L614.844 294.727C619.01 294.987 622.526 295.117 625.391 295.117H630.762C637.467 295.117 642.253 294.857 645.117 294.336L607.422 343.555L644.531 417.188C646.094 420.768 647.559 423.372 648.926 425H642.969C629.232 425 620.671 425.26 617.285 425.781C616.569 421.419 615.592 417.611 614.355 414.355L589.453 366.895L575.293 385.449V425.586ZM675.637 409.57C669.712 403.906 665.025 397.103 661.574 389.16C658.189 381.217 656.496 372.526 656.496 363.086C656.496 353.581 658.091 344.596 661.281 336.133C664.471 327.669 669.029 320.215 674.953 313.77C680.878 307.324 688.039 302.214 696.438 298.438C704.836 294.596 714.243 292.676 724.66 292.676C742.629 292.676 757.766 298.34 770.07 309.668C783.221 321.777 789.797 338.118 789.797 358.691C789.797 378.613 783.026 395.182 769.484 408.398C761.151 416.536 751.223 422.135 739.699 425.195C734.035 426.693 727.395 427.441 719.777 427.441C712.225 427.441 704.445 425.879 696.438 422.754C688.495 419.629 681.561 415.234 675.637 409.57ZM683.645 361.719C683.645 367.773 684.654 373.34 686.672 378.418C688.69 383.496 691.49 387.858 695.07 391.504C702.688 399.186 712.486 403.027 724.465 403.027C735.858 403.027 745.005 399.349 751.906 391.992C758.938 384.375 762.453 373.991 762.453 360.84C762.453 348.47 759.1 338.151 752.395 329.883C745.168 321.029 735.272 316.602 722.707 316.602C710.533 316.602 700.865 321.094 693.703 330.078C686.997 338.477 683.645 349.023 683.645 361.719ZM887.016 294.629C891.052 294.954 894.405 295.117 897.074 295.117H905.18C907.914 295.117 910.779 294.857 913.773 294.336V375.098C913.773 391.113 908.923 403.971 899.223 413.672C890.043 422.852 878.52 427.441 864.652 427.441C849.483 427.441 837.211 423.503 827.836 415.625C817.354 406.771 812.113 394.01 812.113 377.344V294.629C817.517 294.954 822.595 295.117 827.348 295.117C832.165 295.117 836.137 294.857 839.262 294.336V378.613C839.262 386.816 841.768 393.197 846.781 397.754C851.469 401.921 857.328 404.004 864.359 404.004C874.776 404.004 881.71 398.665 885.16 387.988C886.397 384.147 887.016 379.395 887.016 373.73V294.629ZM991.461 425.586C988.336 425.195 980.296 425 967.34 425H964.215V316.992H944.879C939.15 316.992 935.764 317.285 934.723 317.871C933.681 318.457 932.867 318.978 932.281 319.434L931.988 319.336V294.336L932.281 294.043C934.43 294.759 940.224 295.117 949.664 295.117H1010.89C1016.62 295.117 1020.01 294.824 1021.05 294.238C1022.09 293.652 1022.91 293.132 1023.49 292.676L1023.79 292.773V317.773L1023.49 318.066C1021.34 317.35 1015.55 316.992 1006.11 316.992H991.461V425.586ZM169.672 595.586C166.547 595.195 158.507 595 145.551 595H142.426V486.992H123.09C117.361 486.992 113.975 487.285 112.934 487.871C111.892 488.457 111.078 488.978 110.492 489.434L110.199 489.336V464.336L110.492 464.043C112.641 464.759 118.435 465.117 127.875 465.117H189.105C194.835 465.117 198.22 464.824 199.262 464.238C200.303 463.652 201.117 463.132 201.703 462.676L201.996 462.773V487.773L201.703 488.066C199.555 487.35 193.76 486.992 184.32 486.992H169.672V595.586ZM262.984 544.512C261.031 544.642 258.948 544.707 256.734 544.707C254.521 544.707 251.233 544.544 246.871 544.219V595H220.992V464.434C230.107 463.262 241.305 462.676 254.586 462.676C272.685 462.676 286.161 466.029 295.016 472.734C303.935 479.375 308.395 489.661 308.395 503.594C308.395 514.401 304.326 523.646 296.188 531.328C293.518 533.802 290.458 535.951 287.008 537.773L306.93 579.766C310.836 588.424 313.831 593.568 315.914 595.195L315.426 595.684C309.111 594.642 299.182 594.674 285.641 595.781L262.984 544.512ZM256.441 485.723C253.121 485.723 249.931 485.885 246.871 486.211V523.516C250.061 523.971 253.805 524.199 258.102 524.199C262.398 524.199 266.012 523.841 268.941 523.125C271.871 522.344 274.41 521.172 276.559 519.609C281.181 516.159 283.492 510.983 283.492 504.082C283.492 497.181 281.083 492.331 276.266 489.531C271.773 486.992 265.165 485.723 256.441 485.723ZM345.066 595.781C339.467 595.26 332.924 595 325.438 595H317.723L360.203 475.957C362.091 470.618 363.035 467.526 363.035 466.68C363.035 465.768 363.003 465.215 362.938 465.02L363.035 464.824C367.267 465.02 371.759 465.117 376.512 465.117C380.418 465.117 385.105 465.052 390.574 464.922L390.672 465.117C390.542 465.378 390.477 465.736 390.477 466.191C390.477 467.428 391.453 470.716 393.406 476.055L436.766 595.293C435.464 595.228 433.934 595.195 432.176 595.195C432.176 595.195 430.483 595.13 427.098 595C425.47 595 424.005 595 422.703 595H407.566L398.387 566.875H354.246L345.066 595.781ZM390.77 543.438L376.023 498.027L361.668 543.438H390.77ZM508.789 462.676C520.964 462.676 531.348 464.792 539.941 469.023V498.906L539.746 499.102C536.1 493.503 528.418 489.792 516.699 487.969C513.249 487.383 508.887 487.09 503.613 487.09C498.34 487.09 493.164 488.099 488.086 490.117C483.008 492.07 478.841 494.87 475.586 498.516C469.271 505.612 466.113 515.736 466.113 528.887C466.113 544.186 470.117 555.579 478.125 563.066C484.766 569.316 493.555 572.441 504.492 572.441C516.862 572.441 526.888 569.805 534.57 564.531C537.37 562.643 539.746 560.299 541.699 557.5L541.992 557.695V585.039C532.031 593.307 518.62 597.441 501.758 597.441C481.901 597.441 466.341 591.126 455.078 578.496C444.271 566.452 438.867 550.501 438.867 530.645C438.867 509.616 444.792 493.047 456.641 480.938C468.62 468.763 486.003 462.676 508.789 462.676ZM589.504 595.586C585.012 595.195 579.283 595 572.316 595H564.602V464.727L568.508 464.922C571.242 465.052 573.293 465.117 574.66 465.117H577.492C583.221 465.117 587.225 464.857 589.504 464.336V519.512L629.055 464.727C633.221 464.987 636.737 465.117 639.602 465.117H644.973C651.678 465.117 656.464 464.857 659.328 464.336L621.633 513.555L658.742 587.188C660.305 590.768 661.77 593.372 663.137 595H657.18C643.443 595 634.882 595.26 631.496 595.781C630.78 591.419 629.803 587.611 628.566 584.355L603.664 536.895L589.504 555.449V595.586ZM744.535 571.562C748.572 571.562 751.371 571.172 752.934 570.391L753.324 570.488L752.348 595H679.203V464.434C680.961 464.564 682.914 464.661 685.062 464.727L691.898 464.922C696.456 465.052 701.404 465.117 706.742 465.117C721.651 465.117 736.397 464.857 750.98 464.336C750.264 470.065 749.906 477.715 749.906 487.285C749.906 488.327 749.971 489.108 750.102 489.629L749.906 489.922C746.521 488.945 741.703 488.457 735.453 488.457H704.691V513.359H727.836C734.997 513.359 739.294 513.164 740.727 512.773L741.02 536.895C737.895 536.569 733.858 536.406 728.91 536.406H704.691V571.562H744.535ZM819.391 544.512C817.438 544.642 815.354 544.707 813.141 544.707C810.927 544.707 807.639 544.544 803.277 544.219V595H777.398V464.434C786.513 463.262 797.711 462.676 810.992 462.676C829.091 462.676 842.568 466.029 851.422 472.734C860.341 479.375 864.801 489.661 864.801 503.594C864.801 514.401 860.732 523.646 852.594 531.328C849.924 533.802 846.865 535.951 843.414 537.773L863.336 579.766C867.242 588.424 870.237 593.568 872.32 595.195L871.832 595.684C865.517 594.642 855.589 594.674 842.047 595.781L819.391 544.512ZM812.848 485.723C809.527 485.723 806.337 485.885 803.277 486.211V523.516C806.467 523.971 810.211 524.199 814.508 524.199C818.805 524.199 822.418 523.841 825.348 523.125C828.277 522.344 830.816 521.172 832.965 519.609C837.587 516.159 839.898 510.983 839.898 504.082C839.898 497.181 837.49 492.331 832.672 489.531C828.18 486.992 821.572 485.723 812.848 485.723Z" fill="#FAFAF9"/>
</g>
<ellipse id="Ellipse 1" cx="904.487" cy="574.726" rx="11.8949" ry="12.0786" fill="#D95C2D"/>
</g>
<g id="running-stick-figure-svgrepo-com 1" style="mix-blend-mode:lighten" filter="url(#filter0_d)">
<g clip-path="url(#clip0)">
<g id="Group">
<g id="Group_2">
<path id="Vector_32" d="M1306.32 270.153C1301.28 264.104 1292.3 263.309 1286.28 268.353L1246.84 301.653L1228.7 256.486C1228.05 254.79 1227.07 253.367 1225.95 252.111C1222.24 243.823 1215.8 236.707 1206.93 232.583C1203.08 230.825 1199.1 229.883 1195.12 229.423C1194.25 228.962 1193.46 228.355 1192.46 228.042L1123.04 208.597C1119.15 207.53 1115.23 208.221 1112.03 210.104C1108.22 211.402 1104.95 214.186 1103.38 218.225L1077.25 285.767C1074.41 293.113 1078.04 301.402 1085.37 304.29C1092.66 307.136 1100.93 303.474 1103.78 296.106L1125.86 239.072L1157.47 247.904C1156.7 249.16 1155.87 250.332 1155.24 251.672L1114.71 339.955C1114.13 341.252 1113.82 342.571 1113.4 343.911L1064.15 426.899L981.715 454.61C972.385 461.622 970.407 474.828 977.3 484.205C984.235 493.603 997.419 495.591 1006.73 488.663L1091.08 459.466C1093.66 457.582 1095.53 455.112 1096.95 452.454C1098.01 451.324 1099.22 450.424 1100.03 449.022L1129.4 399.543L1181.52 444.187L1125.75 507.354C1118.07 516.061 1118.84 529.477 1127.54 537.179C1136.23 544.944 1149.54 544.128 1157.26 535.379L1226.86 456.577C1229.03 454.15 1230.32 451.345 1231.2 448.415C1231.72 446.824 1231.72 445.171 1231.84 443.517C1231.84 442.68 1232.15 441.926 1232.09 441.152C1231.9 435.375 1229.57 429.766 1224.86 425.768L1176.9 384.662C1180.36 381.355 1183.29 377.42 1185.42 372.794L1216.49 305.169L1226.45 331.813C1226.86 334.178 1227.66 336.501 1229.32 338.448C1230.82 340.248 1232.74 341.441 1234.78 342.278C1234.99 342.383 1235.24 342.404 1235.49 342.466C1236.78 342.927 1238.09 343.366 1239.44 343.429C1241.05 343.576 1242.67 343.366 1244.32 342.906C1244.36 342.885 1244.38 342.885 1244.38 342.885C1244.82 342.78 1245.25 342.864 1245.69 342.676C1248 341.797 1249.77 340.311 1251.29 338.573L1307.9 290.288C1313.92 285.202 1311.38 276.202 1306.32 270.153Z" fill="white"/>
<path id="Vector_33" d="M1234.72 235.744C1256.63 235.744 1274.39 217.892 1274.39 195.872C1274.39 173.851 1256.63 156 1234.72 156C1212.8 156 1195.04 173.851 1195.04 195.872C1195.04 217.892 1212.8 235.744 1234.72 235.744Z" fill="white"/>
</g>
</g>
</g>
</g>
<g id="Login Button" filter="url(#filter1_d)">
<path d="M346 686C346 680.477 350.477 676 356 676H451C456.523 676 461 680.477 461 686V736C461 741.523 456.523 746 451 746H356C350.477 746 346 741.523 346 736V686Z" fill="#F8C33B"/>
<path id="login" d="M374.762 715.002H378.902V717H372.242V704.436H374.762V715.002ZM387.336 717.126C386.16 717.126 385.08 716.85 384.096 716.298C383.112 715.746 382.332 714.984 381.756 714.012C381.18 713.028 380.892 711.918 380.892 710.682C380.892 709.458 381.18 708.36 381.756 707.388C382.332 706.404 383.112 705.636 384.096 705.084C385.08 704.532 386.16 704.256 387.336 704.256C388.524 704.256 389.604 704.532 390.576 705.084C391.56 705.636 392.334 706.404 392.898 707.388C393.474 708.36 393.762 709.458 393.762 710.682C393.762 711.918 393.474 713.028 392.898 714.012C392.334 714.984 391.56 715.746 390.576 716.298C389.592 716.85 388.512 717.126 387.336 717.126ZM387.336 714.876C388.092 714.876 388.758 714.708 389.334 714.372C389.91 714.024 390.36 713.532 390.684 712.896C391.008 712.26 391.17 711.522 391.17 710.682C391.17 709.842 391.008 709.11 390.684 708.486C390.36 707.85 389.91 707.364 389.334 707.028C388.758 706.692 388.092 706.524 387.336 706.524C386.58 706.524 385.908 706.692 385.32 707.028C384.744 707.364 384.294 707.85 383.97 708.486C383.646 709.11 383.484 709.842 383.484 710.682C383.484 711.522 383.646 712.26 383.97 712.896C384.294 713.532 384.744 714.024 385.32 714.372C385.908 714.708 386.58 714.876 387.336 714.876ZM405.385 708.216C405.097 707.688 404.701 707.286 404.197 707.01C403.693 706.734 403.105 706.596 402.433 706.596C401.689 706.596 401.029 706.764 400.453 707.1C399.877 707.436 399.427 707.916 399.103 708.54C398.779 709.164 398.617 709.884 398.617 710.7C398.617 711.54 398.779 712.272 399.103 712.896C399.439 713.52 399.901 714 400.489 714.336C401.077 714.672 401.761 714.84 402.541 714.84C403.501 714.84 404.287 714.588 404.899 714.084C405.511 713.568 405.913 712.854 406.105 711.942H401.785V710.016H408.589V712.212C408.421 713.088 408.061 713.898 407.509 714.642C406.957 715.386 406.243 715.986 405.367 716.442C404.503 716.886 403.531 717.108 402.451 717.108C401.239 717.108 400.141 716.838 399.157 716.298C398.185 715.746 397.417 714.984 396.853 714.012C396.301 713.04 396.025 711.936 396.025 710.7C396.025 709.464 396.301 708.36 396.853 707.388C397.417 706.404 398.185 705.642 399.157 705.102C400.141 704.55 401.233 704.274 402.433 704.274C403.849 704.274 405.079 704.622 406.123 705.318C407.167 706.002 407.887 706.968 408.283 708.216H405.385ZM413.973 704.436V717H411.453V704.436H413.973ZM428.209 717H425.689L419.983 708.378V717H417.463V704.418H419.983L425.689 713.058V704.418H428.209V717Z" fill="white"/>
</g>
<g id="WORKOUT TRACKER">
<path id="WORKOUT TRACKER_2" d="M95.6307 73H98.0284L100.239 65.392H100.33L102.545 73H104.943L108.273 61.3636H105.585L103.659 69.4659H103.557L101.438 61.3636H99.1364L97.0114 69.4489H96.9148L94.9886 61.3636H92.3011L95.6307 73ZM119.626 67.1818C119.626 63.375 117.263 61.2045 114.178 61.2045C111.075 61.2045 108.729 63.375 108.729 67.1818C108.729 70.9716 111.075 73.1591 114.178 73.1591C117.263 73.1591 119.626 70.9886 119.626 67.1818ZM117.132 67.1818C117.132 69.6477 115.962 70.983 114.178 70.983C112.388 70.983 111.223 69.6477 111.223 67.1818C111.223 64.7159 112.388 63.3807 114.178 63.3807C115.962 63.3807 117.132 64.7159 117.132 67.1818ZM121.449 73H123.909V68.875H125.705L127.909 73H130.625L128.153 68.4773C129.477 67.9091 130.21 66.7557 130.21 65.1648C130.21 62.8523 128.682 61.3636 126.04 61.3636H121.449V73ZM123.909 66.8977V63.375H125.568C126.989 63.375 127.676 64.0057 127.676 65.1648C127.676 66.3182 126.989 66.8977 125.58 66.8977H123.909ZM131.949 73H134.409V69.6932L135.619 68.2159L138.807 73H141.75L137.381 66.5739L141.699 61.3636H138.75L134.562 66.4943H134.409V61.3636H131.949V73ZM153.017 67.1818C153.017 63.375 150.653 61.2045 147.568 61.2045C144.466 61.2045 142.119 63.375 142.119 67.1818C142.119 70.9716 144.466 73.1591 147.568 73.1591C150.653 73.1591 153.017 70.9886 153.017 67.1818ZM150.523 67.1818C150.523 69.6477 149.352 70.983 147.568 70.983C145.778 70.983 144.614 69.6477 144.614 67.1818C144.614 64.7159 145.778 63.3807 147.568 63.3807C149.352 63.3807 150.523 64.7159 150.523 67.1818ZM162.027 61.3636V68.7102C162.027 70.0398 161.095 71 159.663 71C158.237 71 157.3 70.0398 157.3 68.7102V61.3636H154.839V68.9205C154.839 71.4659 156.76 73.1648 159.663 73.1648C162.555 73.1648 164.487 71.4659 164.487 68.9205V61.3636H162.027ZM166.068 63.392H169.631V73H172.062V63.392H175.625V61.3636H166.068V63.392ZM180.459 63.392H184.021V73H186.453V63.392H190.016V61.3636H180.459V63.392ZM191.589 73H194.05V68.875H195.845L198.05 73H200.766L198.294 68.4773C199.618 67.9091 200.351 66.7557 200.351 65.1648C200.351 62.8523 198.822 61.3636 196.18 61.3636H191.589V73ZM194.05 66.8977V63.375H195.709C197.129 63.375 197.817 64.0057 197.817 65.1648C197.817 66.3182 197.129 66.8977 195.72 66.8977H194.05ZM204.095 73L204.959 70.3466H209.158L210.021 73H212.658L208.646 61.3636H205.476L201.459 73H204.095ZM205.584 68.4261L207.016 64.0227H207.107L208.538 68.4261H205.584ZM223.778 65.4375C223.455 62.75 221.42 61.2045 218.727 61.2045C215.653 61.2045 213.307 63.375 213.307 67.1818C213.307 70.9773 215.614 73.1591 218.727 73.1591C221.71 73.1591 223.511 71.1761 223.778 69.0341L221.29 69.0227C221.057 70.267 220.08 70.983 218.767 70.983C217 70.983 215.801 69.6705 215.801 67.1818C215.801 64.7614 216.983 63.3807 218.784 63.3807C220.131 63.3807 221.102 64.1591 221.29 65.4375H223.778ZM225.543 73H228.003V69.6932L229.213 68.2159L232.401 73H235.344L230.974 66.5739L235.293 61.3636H232.344L228.156 66.4943H228.003V61.3636H225.543V73ZM236.574 73H244.438V70.9716H239.034V68.1932H244.011V66.1648H239.034V63.392H244.415V61.3636H236.574V73ZM246.371 73H248.831V68.875H250.626L252.831 73H255.547L253.075 68.4773C254.399 67.9091 255.132 66.7557 255.132 65.1648C255.132 62.8523 253.604 61.3636 250.962 61.3636H246.371V73ZM248.831 66.8977V63.375H250.49C251.911 63.375 252.598 64.0057 252.598 65.1648C252.598 66.3182 251.911 66.8977 250.501 66.8977H248.831Z" fill="#FAFAF9"/>
</g>
<g id="WORKOUTS">
<path id="WORKOUTS_2" d="M839.642 72H840.733L842.659 65.0455H842.727L844.653 72H845.744L848.131 63.2727H847.057L845.233 70.3807H845.148L843.29 63.2727H842.097L840.239 70.3807H840.153L838.33 63.2727H837.256L839.642 72ZM856.401 67.6364C856.401 64.875 854.782 63.1534 852.549 63.1534C850.316 63.1534 848.696 64.875 848.696 67.6364C848.696 70.3977 850.316 72.1193 852.549 72.1193C854.782 72.1193 856.401 70.3977 856.401 67.6364ZM855.378 67.6364C855.378 69.9034 854.134 71.1307 852.549 71.1307C850.963 71.1307 849.719 69.9034 849.719 67.6364C849.719 65.3693 850.963 64.142 852.549 64.142C854.134 64.142 855.378 65.3693 855.378 67.6364ZM858.178 72H859.235V68.5909H861.144C861.221 68.5909 861.293 68.5909 861.365 68.5866L863.206 72H864.434L862.461 68.3949C863.573 68.0156 864.093 67.108 864.093 65.9489C864.093 64.4062 863.172 63.2727 861.127 63.2727H858.178V72ZM859.235 67.6364V64.2102H861.093C862.507 64.2102 863.053 64.9006 863.053 65.9489C863.053 66.9972 862.507 67.6364 861.11 67.6364H859.235ZM865.854 72H866.911V69.1705L868.001 67.9432L871.036 72H872.314L868.649 67.2102L872.314 63.2727H870.933L867.013 67.6023H866.911V63.2727H865.854V72ZM880.635 67.6364C880.635 64.875 879.016 63.1534 876.783 63.1534C874.55 63.1534 872.931 64.875 872.931 67.6364C872.931 70.3977 874.55 72.1193 876.783 72.1193C879.016 72.1193 880.635 70.3977 880.635 67.6364ZM879.613 67.6364C879.613 69.9034 878.368 71.1307 876.783 71.1307C875.198 71.1307 873.953 69.9034 873.953 67.6364C873.953 65.3693 875.198 64.142 876.783 64.142C878.368 64.142 879.613 65.3693 879.613 67.6364ZM888.14 63.2727V68.9659C888.14 70.2443 887.262 71.1648 885.804 71.1648C884.347 71.1648 883.469 70.2443 883.469 68.9659V63.2727H882.412V69.0511C882.412 70.8409 883.75 72.1534 885.804 72.1534C887.858 72.1534 889.196 70.8409 889.196 69.0511V63.2727H888.14ZM890.83 64.2102H893.574V72H894.631V64.2102H897.375V63.2727H890.83V64.2102ZM903.779 65.4545H904.801C904.755 64.1378 903.54 63.1534 901.853 63.1534C900.182 63.1534 898.87 64.125 898.87 65.5909C898.87 66.767 899.722 67.4659 901.086 67.858L902.159 68.1648C903.08 68.4205 903.898 68.7443 903.898 69.6136C903.898 70.5682 902.978 71.1989 901.767 71.1989C900.728 71.1989 899.807 70.7386 899.722 69.75H898.631C898.733 71.1818 899.892 72.1534 901.767 72.1534C903.779 72.1534 904.921 71.0455 904.921 69.6307C904.921 67.9943 903.37 67.4659 902.466 67.2273L901.58 66.9886C900.932 66.8182 899.892 66.4773 899.892 65.5398C899.892 64.7045 900.659 64.0909 901.819 64.0909C902.875 64.0909 903.676 64.5938 903.779 65.4545Z" fill="#FAFAF9"/>
</g>
<g id="PROGRAMS">
<path id="PROGRAMS_2" d="M936.057 72H937.114V68.8125H939.023C941.055 68.8125 941.972 67.5767 941.972 66.0341C941.972 64.4915 941.055 63.2727 939.006 63.2727H936.057V72ZM937.114 67.875V64.2102H938.972C940.391 64.2102 940.932 64.9858 940.932 66.0341C940.932 67.0824 940.391 67.875 938.989 67.875H937.114ZM943.674 72H944.731V68.5909H946.64C946.717 68.5909 946.789 68.5909 946.862 68.5866L948.702 72H949.93L947.957 68.3949C949.069 68.0156 949.589 67.108 949.589 65.9489C949.589 64.4062 948.668 63.2727 946.623 63.2727H943.674V72ZM944.731 67.6364V64.2102H946.589C948.004 64.2102 948.549 64.9006 948.549 65.9489C948.549 66.9972 948.004 67.6364 946.606 67.6364H944.731ZM958.713 67.6364C958.713 64.875 957.094 63.1534 954.861 63.1534C952.628 63.1534 951.009 64.875 951.009 67.6364C951.009 70.3977 952.628 72.1193 954.861 72.1193C957.094 72.1193 958.713 70.3977 958.713 67.6364ZM957.691 67.6364C957.691 69.9034 956.446 71.1307 954.861 71.1307C953.276 71.1307 952.032 69.9034 952.032 67.6364C952.032 65.3693 953.276 64.142 954.861 64.142C956.446 64.142 957.691 65.3693 957.691 67.6364ZM966.456 66H967.547C967.223 64.3125 965.809 63.1534 963.968 63.1534C961.73 63.1534 960.15 64.875 960.15 67.6364C960.15 70.3977 961.718 72.1193 964.036 72.1193C966.115 72.1193 967.598 70.7344 967.598 68.5739V67.6364H964.275V68.5739H966.576C966.546 70.142 965.515 71.1307 964.036 71.1307C962.417 71.1307 961.172 69.9034 961.172 67.6364C961.172 65.3693 962.417 64.142 963.968 64.142C965.229 64.142 966.086 64.8537 966.456 66ZM969.408 72H970.465V68.5909H972.374C972.451 68.5909 972.523 68.5909 972.596 68.5866L974.437 72H975.664L973.691 68.3949C974.803 68.0156 975.323 67.108 975.323 65.9489C975.323 64.4062 974.403 63.2727 972.357 63.2727H969.408V72ZM970.465 67.6364V64.2102H972.323C973.738 64.2102 974.283 64.9006 974.283 65.9489C974.283 66.9972 973.738 67.6364 972.34 67.6364H970.465ZM977.442 72L978.32 69.5284H981.848L982.726 72H983.834L980.63 63.2727H979.539L976.334 72H977.442ZM978.652 68.5909L980.05 64.6534H980.118L981.516 68.5909H978.652ZM985.194 63.2727V72H986.182V65.3693H986.267L988.995 72H989.949L992.676 65.3693H992.762V72H993.75V63.2727H992.489L989.523 70.517H989.421L986.455 63.2727H985.194ZM1000.64 65.4545H1001.66C1001.62 64.1378 1000.4 63.1534 998.716 63.1534C997.045 63.1534 995.733 64.125 995.733 65.5909C995.733 66.767 996.585 67.4659 997.949 67.858L999.023 68.1648C999.943 68.4205 1000.76 68.7443 1000.76 69.6136C1000.76 70.5682 999.841 71.1989 998.631 71.1989C997.591 71.1989 996.67 70.7386 996.585 69.75H995.494C995.597 71.1818 996.756 72.1534 998.631 72.1534C1000.64 72.1534 1001.78 71.0455 1001.78 69.6307C1001.78 67.9943 1000.23 67.4659 999.33 67.2273L998.443 66.9886C997.795 66.8182 996.756 66.4773 996.756 65.5398C996.756 64.7045 997.523 64.0909 998.682 64.0909C999.739 64.0909 1000.54 64.5938 1000.64 65.4545Z" fill="#FAFAF9"/>
</g>
<g id="HEALTHY LIVING">
<path id="HEALTHY LIVING_2" d="M1062.06 72H1063.11V68.0966H1067.77V72H1068.82V63.2727H1067.77V67.1591H1063.11V63.2727H1062.06V72ZM1070.94 72H1076.27V71.0625H1072V68.0966H1075.93V67.1591H1072V64.2102H1076.21V63.2727H1070.94V72ZM1078.47 72L1079.35 69.5284H1082.88L1083.75 72H1084.86L1081.66 63.2727H1080.57L1077.36 72H1078.47ZM1079.68 68.5909L1081.08 64.6534H1081.15L1082.54 68.5909H1079.68ZM1086.22 72H1091.33V71.0625H1087.28V63.2727H1086.22V72ZM1091.33 64.2102H1094.08V72H1095.13V64.2102H1097.88V63.2727H1091.33V64.2102ZM1099.51 72H1100.57V68.0966H1105.22V72H1106.28V63.2727H1105.22V67.1591H1100.57V63.2727H1099.51V72ZM1107.64 63.2727L1110.8 68.4034V72H1111.85V68.4034L1115.01 63.2727H1113.8L1111.38 67.3466H1111.27L1108.85 63.2727H1107.64ZM1119.75 72H1124.86V71.0625H1120.81V63.2727H1119.75V72ZM1127.56 63.2727H1126.5V72H1127.56V63.2727ZM1130.03 63.2727H1128.92L1132.13 72H1133.22L1136.42 63.2727H1135.32L1132.73 70.6193H1132.62L1130.03 63.2727ZM1138.84 63.2727H1137.78V72H1138.84V63.2727ZM1147.88 63.2727H1146.84V70.142H1146.75L1141.98 63.2727H1140.96V72H1142.02V65.1477H1142.1L1146.86 72H1147.88V63.2727ZM1155.96 66H1157.05C1156.73 64.3125 1155.31 63.1534 1153.47 63.1534C1151.23 63.1534 1149.65 64.875 1149.65 67.6364C1149.65 70.3977 1151.22 72.1193 1153.54 72.1193C1155.62 72.1193 1157.1 70.7344 1157.1 68.5739V67.6364H1153.78V68.5739H1156.08C1156.05 70.142 1155.02 71.1307 1153.54 71.1307C1151.92 71.1307 1150.68 69.9034 1150.68 67.6364C1150.68 65.3693 1151.92 64.142 1153.47 64.142C1154.73 64.142 1155.59 64.8537 1155.96 66Z" fill="#FAFAF9"/>
</g>
<g id="CONTACT">
<path id="CONTACT_2" d="M1190.08 66C1189.76 64.2102 1188.32 63.1534 1186.57 63.1534C1184.34 63.1534 1182.72 64.875 1182.72 67.6364C1182.72 70.3977 1184.34 72.1193 1186.57 72.1193C1188.32 72.1193 1189.76 71.0625 1190.08 69.2727H1189.02C1188.77 70.483 1187.73 71.1307 1186.57 71.1307C1184.98 71.1307 1183.74 69.9034 1183.74 67.6364C1183.74 65.3693 1184.98 64.142 1186.57 64.142C1187.73 64.142 1188.77 64.7898 1189.02 66H1190.08ZM1199.15 67.6364C1199.15 64.875 1197.53 63.1534 1195.3 63.1534C1193.07 63.1534 1191.45 64.875 1191.45 67.6364C1191.45 70.3977 1193.07 72.1193 1195.3 72.1193C1197.53 72.1193 1199.15 70.3977 1199.15 67.6364ZM1198.13 67.6364C1198.13 69.9034 1196.88 71.1307 1195.3 71.1307C1193.71 71.1307 1192.47 69.9034 1192.47 67.6364C1192.47 65.3693 1193.71 64.142 1195.3 64.142C1196.88 64.142 1198.13 65.3693 1198.13 67.6364ZM1207.85 63.2727H1206.81V70.142H1206.72L1201.95 63.2727H1200.93V72H1201.98V65.1477H1202.07L1206.83 72H1207.85V63.2727ZM1209.49 64.2102H1212.23V72H1213.29V64.2102H1216.03V63.2727H1209.49V64.2102ZM1217 72L1217.88 69.5284H1221.41L1222.28 72H1223.39L1220.19 63.2727H1219.1L1215.89 72H1217ZM1218.21 68.5909L1219.61 64.6534H1219.68L1221.07 68.5909H1218.21ZM1231.36 66C1231.04 64.2102 1229.61 63.1534 1227.85 63.1534C1225.62 63.1534 1224 64.875 1224 67.6364C1224 70.3977 1225.62 72.1193 1227.85 72.1193C1229.61 72.1193 1231.04 71.0625 1231.36 69.2727H1230.31C1230.05 70.483 1229.01 71.1307 1227.85 71.1307C1226.27 71.1307 1225.02 69.9034 1225.02 67.6364C1225.02 65.3693 1226.27 64.142 1227.85 64.142C1229.01 64.142 1230.05 64.7898 1230.31 66H1231.36ZM1232.6 64.2102H1235.34V72H1236.4V64.2102H1239.14V63.2727H1232.6V64.2102Z" fill="#FAFAF9"/>
</g>
<g id="ABOUT">
<path id="ABOUT_2" d="M1265.41 72L1266.29 69.5284H1269.82L1270.7 72H1271.81L1268.6 63.2727H1267.51L1264.31 72H1265.41ZM1266.62 68.5909L1268.02 64.6534H1268.09L1269.49 68.5909H1266.62ZM1273.17 72H1276.32C1278.38 72 1279.23 70.9943 1279.23 69.6818C1279.23 68.3011 1278.28 67.5511 1277.48 67.5V67.4148C1278.23 67.2102 1278.89 66.7159 1278.89 65.5909C1278.89 64.3125 1278.04 63.2727 1276.22 63.2727H1273.17V72ZM1274.22 71.0625V68.0284H1276.37C1277.51 68.0284 1278.23 68.7955 1278.23 69.6818C1278.23 70.4489 1277.7 71.0625 1276.32 71.0625H1274.22ZM1274.22 67.108V64.2102H1276.22C1277.38 64.2102 1277.89 64.8239 1277.89 65.5909C1277.89 66.5114 1277.14 67.108 1276.18 67.108H1274.22ZM1288.33 67.6364C1288.33 64.875 1286.72 63.1534 1284.48 63.1534C1282.25 63.1534 1280.63 64.875 1280.63 67.6364C1280.63 70.3977 1282.25 72.1193 1284.48 72.1193C1286.72 72.1193 1288.33 70.3977 1288.33 67.6364ZM1287.31 67.6364C1287.31 69.9034 1286.07 71.1307 1284.48 71.1307C1282.9 71.1307 1281.65 69.9034 1281.65 67.6364C1281.65 65.3693 1282.9 64.142 1284.48 64.142C1286.07 64.142 1287.31 65.3693 1287.31 67.6364ZM1295.84 63.2727V68.9659C1295.84 70.2443 1294.96 71.1648 1293.5 71.1648C1292.05 71.1648 1291.17 70.2443 1291.17 68.9659V63.2727H1290.11V69.0511C1290.11 70.8409 1291.45 72.1534 1293.5 72.1534C1295.56 72.1534 1296.9 70.8409 1296.9 69.0511V63.2727H1295.84ZM1298.53 64.2102H1301.27V72H1302.33V64.2102H1305.07V63.2727H1298.53V64.2102Z" fill="#FAFAF9"/>
</g>
<g id="Join Now Button" filter="url(#filter2_d)">
<g id="Join Now Button_2">
<g id="Button" filter="url(#filter3_d)">
<path d="M179 686C179 680.477 183.477 676 189 676H317C322.523 676 327 680.477 327 686V736C327 741.523 322.523 746 317 746H189C183.477 746 179 741.523 179 736V686Z" fill="#E6533C"/>
<path id="Join Now!" d="M212.568 704.436V713.256C212.568 714.48 212.214 715.434 211.506 716.118C210.798 716.79 209.85 717.126 208.662 717.126C207.462 717.126 206.49 716.778 205.746 716.082C205.014 715.386 204.648 714.414 204.648 713.166H207.168C207.18 713.706 207.306 714.126 207.546 714.426C207.798 714.726 208.158 714.876 208.626 714.876C209.082 714.876 209.43 714.732 209.67 714.444C209.91 714.156 210.03 713.76 210.03 713.256V704.436H212.568ZM220.936 717.162C219.976 717.162 219.112 716.952 218.344 716.532C217.576 716.1 216.97 715.494 216.526 714.714C216.094 713.934 215.878 713.034 215.878 712.014C215.878 710.994 216.1 710.094 216.544 709.314C217 708.534 217.618 707.934 218.398 707.514C219.178 707.082 220.048 706.866 221.008 706.866C221.968 706.866 222.838 707.082 223.618 707.514C224.398 707.934 225.01 708.534 225.454 709.314C225.91 710.094 226.138 710.994 226.138 712.014C226.138 713.034 225.904 713.934 225.436 714.714C224.98 715.494 224.356 716.1 223.564 716.532C222.784 716.952 221.908 717.162 220.936 717.162ZM220.936 714.966C221.392 714.966 221.818 714.858 222.214 714.642C222.622 714.414 222.946 714.078 223.186 713.634C223.426 713.19 223.546 712.65 223.546 712.014C223.546 711.066 223.294 710.34 222.79 709.836C222.298 709.32 221.692 709.062 220.972 709.062C220.252 709.062 219.646 709.32 219.154 709.836C218.674 710.34 218.434 711.066 218.434 712.014C218.434 712.962 218.668 713.694 219.136 714.21C219.616 714.714 220.216 714.966 220.936 714.966ZM230.264 705.84C229.82 705.84 229.448 705.702 229.148 705.426C228.86 705.138 228.716 704.784 228.716 704.364C228.716 703.944 228.86 703.596 229.148 703.32C229.448 703.032 229.82 702.888 230.264 702.888C230.708 702.888 231.074 703.032 231.362 703.32C231.662 703.596 231.812 703.944 231.812 704.364C231.812 704.784 231.662 705.138 231.362 705.426C231.074 705.702 230.708 705.84 230.264 705.84ZM231.506 707.028V717H228.986V707.028H231.506ZM240.522 706.884C241.71 706.884 242.67 707.262 243.402 708.018C244.134 708.762 244.5 709.806 244.5 711.15V717H241.98V711.492C241.98 710.7 241.782 710.094 241.386 709.674C240.99 709.242 240.45 709.026 239.766 709.026C239.07 709.026 238.518 709.242 238.11 709.674C237.714 710.094 237.516 710.7 237.516 711.492V717H234.996V707.028H237.516V708.27C237.852 707.838 238.278 707.502 238.794 707.262C239.322 707.01 239.898 706.884 240.522 706.884ZM263.931 717H261.411L255.705 708.378V717H253.185V704.418H255.705L261.411 713.058V704.418H263.931V717ZM271.85 717.162C270.89 717.162 270.026 716.952 269.258 716.532C268.49 716.1 267.884 715.494 267.44 714.714C267.008 713.934 266.792 713.034 266.792 712.014C266.792 710.994 267.014 710.094 267.458 709.314C267.914 708.534 268.532 707.934 269.312 707.514C270.092 707.082 270.962 706.866 271.922 706.866C272.882 706.866 273.752 707.082 274.532 707.514C275.312 707.934 275.924 708.534 276.368 709.314C276.824 710.094 277.052 710.994 277.052 712.014C277.052 713.034 276.818 713.934 276.35 714.714C275.894 715.494 275.27 716.1 274.478 716.532C273.698 716.952 272.822 717.162 271.85 717.162ZM271.85 714.966C272.306 714.966 272.732 714.858 273.128 714.642C273.536 714.414 273.86 714.078 274.1 713.634C274.34 713.19 274.46 712.65 274.46 712.014C274.46 711.066 274.208 710.34 273.704 709.836C273.212 709.32 272.606 709.062 271.886 709.062C271.166 709.062 270.56 709.32 270.068 709.836C269.588 710.34 269.348 711.066 269.348 712.014C269.348 712.962 269.582 713.694 270.05 714.21C270.53 714.714 271.13 714.966 271.85 714.966ZM293.724 707.028L290.808 717H288.09L286.272 710.034L284.454 717H281.718L278.784 707.028H281.34L283.104 714.624L285.012 707.028H287.676L289.548 714.606L291.312 707.028H293.724ZM299.346 704.22L299.058 712.914H296.934L296.628 704.22H299.346ZM298.05 717.126C297.594 717.126 297.216 716.988 296.916 716.712C296.628 716.424 296.484 716.07 296.484 715.65C296.484 715.23 296.628 714.882 296.916 714.606C297.216 714.318 297.594 714.174 298.05 714.174C298.494 714.174 298.86 714.318 299.148 714.606C299.436 714.882 299.58 715.23 299.58 715.65C299.58 716.07 299.436 716.424 299.148 716.712C298.86 716.988 298.494 717.126 298.05 717.126Z" fill="white"/>
</g>
</g>
</g>
</g>
<defs>
<filter id="filter0_d" x="946.391" y="156" width="391.811" height="394.511" filterUnits="userSpaceOnUse" color-interpolation-filters="sRGB">
<feFlood flood-opacity="0" result="BackgroundImageFix"/>
<feColorMatrix in="SourceAlpha" type="matrix" values="0 0 0 0 0 0 0 0 0 0 0 0 0 0 0 0 0 0 127 0" result="hardAlpha"/>
<feOffset dy="4"/>
<feGaussianBlur stdDeviation="2"/>
<feComposite in2="hardAlpha" operator="out"/>
<feColorMatrix type="matrix" values="0 0 0 0 0 0 0 0 0 0 0 0 0 0 0 0 0 0 0.25 0"/>
<feBlend mode="normal" in2="BackgroundImageFix" result="effect1_dropShadow"/>
<feBlend mode="normal" in="SourceGraphic" in2="effect1_dropShadow" result="shape"/>
</filter>
<filter id="filter1_d" x="342" y="676" width="123" height="78" filterUnits="userSpaceOnUse" color-interpolation-filters="sRGB">
<feFlood flood-opacity="0" result="BackgroundImageFix"/>
<feColorMatrix in="SourceAlpha" type="matrix" values="0 0 0 0 0 0 0 0 0 0 0 0 0 0 0 0 0 0 127 0" result="hardAlpha"/>
<feOffset dy="4"/>
<feGaussianBlur stdDeviation="2"/>
<feComposite in2="hardAlpha" operator="out"/>
<feColorMatrix type="matrix" values="0 0 0 0 0 0 0 0 0 0 0 0 0 0 0 0 0 0 0.25 0"/>
<feBlend mode="normal" in2="BackgroundImageFix" result="effect1_dropShadow"/>
<feBlend mode="normal" in="SourceGraphic" in2="effect1_dropShadow" result="shape"/>
</filter>
<filter id="filter2_d" x="175" y="676" width="156" height="78" filterUnits="userSpaceOnUse" color-interpolation-filters="sRGB">
<feFlood flood-opacity="0" result="BackgroundImageFix"/>
<feColorMatrix in="SourceAlpha" type="matrix" values="0 0 0 0 0 0 0 0 0 0 0 0 0 0 0 0 0 0 127 0" result="hardAlpha"/>
<feOffset dy="4"/>
<feGaussianBlur stdDeviation="2"/>
<feComposite in2="hardAlpha" operator="out"/>
<feColorMatrix type="matrix" values="0 0 0 0 0 0 0 0 0 0 0 0 0 0 0 0 0 0 0.25 0"/>
<feBlend mode="normal" in2="BackgroundImageFix" result="effect1_dropShadow"/>
<feBlend mode="normal" in="SourceGraphic" in2="effect1_dropShadow" result="shape"/>
</filter>
<filter id="filter3_d" x="175" y="676" width="156" height="78" filterUnits="userSpaceOnUse" color-interpolation-filters="sRGB">
<feFlood flood-opacity="0" result="BackgroundImageFix"/>
<feColorMatrix in="SourceAlpha" type="matrix" values="0 0 0 0 0 0 0 0 0 0 0 0 0 0 0 0 0 0 127 0" result="hardAlpha"/>
<feOffset dy="4"/>
<feGaussianBlur stdDeviation="2"/>
<feComposite in2="hardAlpha" operator="out"/>
<feColorMatrix type="matrix" values="0 0 0 0 0 0 0 0 0 0 0 0 0 0 0 0 0 0 0.25 0"/>
<feBlend mode="normal" in2="BackgroundImageFix" result="effect1_dropShadow"/>
<feBlend mode="normal" in="SourceGraphic" in2="effect1_dropShadow" result="shape"/>
</filter>
<clipPath id="clip0">
<path d="M950.391 156H1334.2V542.511H950.391V156Z" fill="white"/>
</clipPath>
</defs>
</svg>
